<svg width="104" height="87" viewBox="0 0 104 87" fill="none" xmlns="http://www.w3.org/2000/svg">
<path fill-rule="evenodd" clip-rule="evenodd" d="M57.9089 0C53.8259 0 50.1411 2.45273 48.5796 6.21998C47.0137 9.98281 47.8807 14.3148 50.7693 17.1955C53.6579 20.0761 58.0018 20.9407 61.7751 19.3791C65.5528 17.8219 68.0123 14.1472 68.0123 10.0755C68.0123 4.5084 63.4914 0 57.9089 0ZM102.937 40.35C103.476 40.0147 103.852 39.4633 103.963 38.837C104.078 38.215 103.923 37.5665 103.538 37.0636C102.538 35.6212 101.03 34.6153 99.3136 34.2492C97.1727 33.808 94.262 34.1698 90.2542 36.1593L66.8582 47.8137C66.4955 51.4707 63.4166 54.2586 59.7362 54.263H45.1822C44.7089 54.1174 44.386 53.6763 44.386 53.1823C44.386 52.6882 44.7089 52.2515 45.1822 52.1059H59.7362C62.3993 51.978 64.4915 49.7899 64.4915 47.13C64.4915 44.4743 62.3991 42.2818 59.7362 42.154H40.4272C40.3166 42.1805 40.206 42.1805 40.0998 42.154C36.1584 40.8571 31.7747 39.8954 27.6431 40.7424C22.41 41.7702 18.8004 45.3478 16.2033 49.7768L9.97493 60.417L32.3982 73.3249L33.858 70.7972C36.176 66.6771 40.5685 64.1493 45.3057 64.2111H53.1088C55.8426 64.2243 58.5719 63.8847 61.2173 63.1965C63.8537 62.4775 66.3884 61.4144 68.7461 60.0336L102.937 40.35ZM32.2752 75.7424C33.0715 76.1967 33.6509 76.9555 33.8766 77.8422C34.1066 78.7289 33.965 79.6685 33.4873 80.4493L30.6871 85.2621C30.2359 86.0693 29.4707 86.6605 28.5727 86.8898C27.6747 87.1236 26.7192 86.9825 25.9318 86.4928L1.72162 72.5222C0.929807 72.0767 0.354782 71.3311 0.115839 70.4577C-0.118608 69.5843 0.00525068 68.6534 0.465296 67.8726L3.28312 62.9937C3.73433 62.2085 4.48191 61.6351 5.35773 61.4012C6.2336 61.1674 7.16702 61.2909 7.94998 61.7497L32.2752 75.7424ZM57.91 22.9825C62.7229 23.0663 67.3676 24.7206 71.1459 27.6894C74.9235 30.6582 77.622 34.7784 78.8296 39.424L66.7002 45.4764C65.9216 42.2738 63.0507 40.0108 59.7464 40.0018H40.6547C39.5223 39.6313 38.3324 39.2916 37.1424 39.0093V39.0049C38.4252 34.4656 41.1324 30.4557 44.8747 27.5707C48.6127 24.6856 53.1865 23.0755 57.9113 22.9829L57.91 22.9825Z" fill="#D61962"/>
</svg>
