<svg width="237" height="75" viewBox="0 0 237 75" fill="none" xmlns="http://www.w3.org/2000/svg">
<rect width="237" height="75" fill="white"/>
<path d="M71.7551 50.9216V47.2185H74.5741V27.98H71.7551V24.2769H91.7832V31.5384H87.6826V28.017H79.2823V34.6832H86.7729V38.6755H79.2823V47.2218H82.7254V50.9249H71.7551V50.9216Z" fill="#D61962"/>
<path d="M101.923 49.408C101.266 50.0336 100.622 50.4911 99.9943 50.7837C99.3635 51.0729 98.7027 51.2175 98.0055 51.2175C96.8367 51.2175 95.9768 50.898 95.419 50.259C94.8612 49.6199 94.5856 48.6412 94.5856 47.316V42.0658H93.0416V39.7383H97.3315V46.6938C97.3315 47.2891 97.4809 47.7465 97.783 48.0627C98.0852 48.3788 98.5135 48.5369 99.0713 48.5369C99.566 48.5369 100.051 48.4024 100.522 48.1367C100.994 47.871 101.462 47.4606 101.927 46.9023V42.0624H100.386V39.735H104.676V48.5807H106.197V50.9182H101.93V49.408H101.923Z" fill="#D61962"/>
<path d="M111.732 46.6366C111.732 47.6221 111.808 48.2241 111.964 48.4394C112.12 48.6546 112.585 48.7623 113.368 48.7623C113.415 48.7623 113.505 48.7488 113.634 48.7253C113.687 48.7185 113.727 48.7152 113.75 48.7152V50.9249C113.465 50.9552 113.169 50.9787 112.864 50.9956C112.558 51.0124 112.236 51.0191 111.894 51.0191C110.719 51.0191 109.942 50.8442 109.563 50.4911C109.185 50.1379 108.996 49.3206 108.996 48.0358V42.0692H107.083V39.7417H108.996V35.7964H111.732V39.7417H113.75V42.0692H111.732V46.6366Z" fill="#D61962"/>
<path d="M124.083 49.408C123.426 50.0336 122.782 50.4911 122.154 50.7837C121.523 51.0729 120.862 51.2175 120.165 51.2175C118.996 51.2175 118.136 50.898 117.579 50.259C117.021 49.6199 116.745 48.6412 116.745 47.316V42.0658H115.201V39.7383H119.491V46.6938C119.491 47.2891 119.641 47.7465 119.943 48.0627C120.245 48.3788 120.673 48.5369 121.231 48.5369C121.726 48.5369 122.21 48.4024 122.682 48.1367C123.153 47.871 123.622 47.4606 124.086 46.9023V42.0624H122.546V39.735H126.836V48.5807H128.356V50.9182H124.09V49.408H124.083Z" fill="#D61962"/>
<path d="M133.915 41.3494L134.054 41.3023C134.207 40.7373 134.459 40.3034 134.808 39.9973C135.156 39.6912 135.578 39.5399 136.073 39.5399C136.637 39.5399 137.102 39.7282 137.471 40.1049C137.839 40.4816 138.022 40.9592 138.022 41.5377C138.022 42.1162 137.839 42.5905 137.477 42.9604C137.115 43.3271 136.637 43.512 136.049 43.512C135.608 43.512 135.219 43.3809 134.884 43.1185C134.549 42.8562 134.28 42.4728 134.077 41.9716L133.915 42.0422V48.584H135.458V50.9216H129.615V48.584H131.159V42.0658H129.615V39.7383H133.918V41.3494H133.915Z" fill="#D61962"/>
<path d="M150.383 47.6221C150.058 48.7656 149.414 49.6502 148.447 50.2758C147.481 50.9014 146.276 51.2142 144.828 51.2142C142.996 51.2142 141.521 50.6727 140.399 49.593C139.277 48.5134 138.719 47.094 138.719 45.3417C138.719 43.6264 139.29 42.2205 140.429 41.1173C141.568 40.0141 143.029 39.4659 144.805 39.4659C146.575 39.4659 147.999 40.0478 149.072 41.2115C150.147 42.3752 150.682 43.9257 150.682 45.8698V46.1523H141.545C141.638 47.0133 141.973 47.6759 142.554 48.1367C143.135 48.5975 143.915 48.8295 144.895 48.8295C145.506 48.8295 146.054 48.7253 146.542 48.5134C147.03 48.3015 147.405 48.0055 147.667 47.6221H150.383ZM141.545 44.1914H147.956C147.734 43.4179 147.352 42.8293 146.814 42.429C146.276 42.0288 145.605 41.8304 144.802 41.8304C143.968 41.8304 143.261 42.0389 142.687 42.4526C142.112 42.8663 141.731 43.4481 141.545 44.1914Z" fill="#D61962"/>
<path d="M157.645 48.6647V50.9216H153.846V41.8875H157.645C158.143 43.8013 158.92 45.2576 159.972 46.2498C161.025 47.2454 162.336 47.7398 163.903 47.7398C165.105 47.7398 166.115 47.353 166.935 46.5828C167.755 45.8126 168.167 44.8675 168.167 43.7475C168.167 42.7351 167.811 41.9111 167.104 41.272C166.397 40.633 165.205 40.0747 163.528 39.5903L160.533 38.7428C158.133 38.0701 156.386 37.1452 155.301 35.9713C154.212 34.7975 153.667 33.2706 153.667 31.3904C153.667 29.221 154.421 27.4115 155.931 25.9518C157.442 24.4955 159.325 23.7656 161.586 23.7656C162.798 23.7656 163.923 23.9574 164.956 24.3441C165.992 24.7309 166.875 25.2892 167.612 26.0258V24.2735H171.268V32.2044H167.612C167.197 30.6269 166.546 29.4498 165.67 28.6728C164.79 27.8959 163.671 27.5091 162.316 27.5091C161.174 27.5091 160.245 27.8252 159.524 28.4576C158.804 29.0899 158.445 29.8937 158.445 30.8691C158.445 31.6999 158.674 32.3591 159.132 32.8468C159.59 33.3345 160.394 33.7481 161.549 34.0845L164.74 35.0061C167.675 35.8738 169.744 36.9299 170.936 38.1777C172.131 39.4255 172.729 41.0938 172.729 43.1925C172.729 45.6848 171.982 47.686 170.491 49.1894C169 50.6962 167.015 51.4463 164.544 51.4463C163.14 51.4463 161.858 51.2108 160.693 50.7433C159.531 50.2724 158.515 49.5796 157.645 48.6647Z" fill="#D61962"/>
<path d="M176.282 35.9343H174.741V33.5968H179.044V41.2552C179.695 40.6296 180.332 40.1722 180.963 39.8796C181.594 39.5903 182.261 39.4457 182.962 39.4457C184.121 39.4457 184.981 39.7619 185.542 40.3976C186.103 41.0332 186.382 42.0153 186.382 43.3472V48.5874H187.923V50.9249H182.079V48.5874H183.619V43.9695C183.619 43.3674 183.47 42.8999 183.168 42.5669C182.866 42.234 182.441 42.0692 181.893 42.0692C181.405 42.0692 180.927 42.207 180.455 42.4862C179.984 42.7654 179.512 43.1892 179.041 43.7609V48.5874H180.581V50.9249H174.738V48.5874H176.278V35.9343H176.282Z" fill="#D61962"/>
<path d="M200.749 48.584H202.293V50.9216H198.003V49.7242C197.538 50.2018 197.01 50.565 196.419 50.8173C195.828 51.0696 195.201 51.194 194.537 51.194C192.896 51.194 191.552 50.6424 190.502 49.5392C189.45 48.436 188.925 47.0301 188.925 45.3215C188.925 43.66 189.46 42.2676 190.526 41.1409C191.591 40.0141 192.93 39.4491 194.537 39.4491C195.194 39.4491 195.808 39.5735 196.379 39.819C196.95 40.0646 197.492 40.4413 198.003 40.9391V39.7417H202.293V42.0692H200.749V48.584ZM191.728 45.3417C191.728 46.3272 192.023 47.1344 192.614 47.7566C193.205 48.3789 193.969 48.6916 194.905 48.6916C195.818 48.6916 196.575 48.3755 197.183 47.7465C197.791 47.1176 198.093 46.3171 198.093 45.3451C198.093 44.3731 197.787 43.5692 197.176 42.9302C196.565 42.2911 195.808 41.9716 194.905 41.9716C193.969 41.9716 193.205 42.2844 192.614 42.91C192.023 43.5356 191.728 44.3495 191.728 45.3417Z" fill="#D61962"/>
<path d="M211.211 33.5968H215.478V48.584H217.022V50.9216H212.732V49.7242C212.267 50.2018 211.739 50.565 211.148 50.8173C210.557 51.0696 209.93 51.194 209.265 51.194C207.625 51.194 206.281 50.6424 205.231 49.5392C204.179 48.436 203.654 47.0301 203.654 45.3215C203.654 43.66 204.189 42.2676 205.255 41.1409C206.32 40.0141 207.658 39.4491 209.265 39.4491C209.923 39.4491 210.537 39.5735 211.108 39.8191C211.679 40.0646 212.221 40.4413 212.732 40.9391V35.9343H211.211V33.5968ZM206.457 45.3417C206.457 46.3036 206.759 47.1041 207.366 47.7364C207.974 48.3688 208.728 48.6883 209.634 48.6883C210.554 48.6883 211.314 48.3721 211.918 47.7432C212.523 47.1142 212.822 46.3137 212.822 45.3417C212.822 44.3697 212.516 43.5659 211.905 42.9268C211.294 42.2878 210.537 41.9682 209.634 41.9682C208.738 41.9682 207.984 42.2878 207.373 42.9268C206.762 43.5692 206.457 44.3731 206.457 45.3417Z" fill="#D61962"/>
<path d="M222.55 48.584H224.141V50.9216H218.111V48.584H219.791V42.0658H218.134V39.7383H222.553V48.584H222.55ZM218.898 37.9086V34.9489H222.55V37.9086H218.898Z" fill="#D61962"/>
<path d="M63.3514 33.3042L42.5497 12.2326C39.2394 8.87932 33.8704 8.87932 30.5601 12.2326L9.75839 33.3042C6.44805 36.6575 6.44805 42.0961 9.75839 45.4493L30.5601 66.5209C33.8704 69.8742 39.2394 69.8742 42.5497 66.5209L63.3514 45.4493C66.6618 42.0961 66.6618 36.6575 63.3514 33.3042ZM31.5462 24.2432C31.5529 24.2197 31.5562 24.1928 31.5628 24.1692C31.5695 24.1423 31.5728 24.1188 31.5794 24.0953C31.5828 24.0751 31.5894 24.0549 31.5927 24.0347C31.5927 24.0313 31.596 24.028 31.596 24.0246C31.6027 23.991 31.6126 23.954 31.6226 23.9204C31.6292 23.8934 31.6359 23.8665 31.6458 23.8396C31.6558 23.8026 31.6658 23.7656 31.6757 23.732C31.6757 23.7286 31.679 23.7253 31.679 23.7219C31.6857 23.6984 31.6923 23.6748 31.7023 23.6546C31.7122 23.621 31.7222 23.5907 31.7355 23.5571C31.7488 23.5201 31.762 23.4831 31.7753 23.4495C31.7919 23.399 31.8119 23.3452 31.8351 23.2981C31.8384 23.2914 31.8417 23.2813 31.8451 23.2746C31.855 23.251 31.865 23.2275 31.8749 23.204C31.8949 23.1535 31.9181 23.1064 31.938 23.0593C31.9546 23.019 31.9746 22.982 31.9945 22.9416C32.0111 22.908 32.0277 22.8777 32.0443 22.8474C32.0609 22.8104 32.0808 22.7768 32.1007 22.7432C32.1372 22.6793 32.1704 22.6154 32.2103 22.5548C32.2302 22.5178 32.2535 22.4808 32.2767 22.4472C32.2833 22.4371 32.29 22.4237 32.2966 22.4136C32.3265 22.3665 32.3564 22.3228 32.3896 22.2757C32.4162 22.2353 32.446 22.1949 32.4759 22.1546C32.4958 22.1277 32.5158 22.1008 32.5357 22.0772C32.5589 22.047 32.5822 22.0167 32.6054 21.9898C32.6253 21.9629 32.6486 21.936 32.6718 21.9091C32.6984 21.8788 32.7216 21.8485 32.7449 21.8216C32.7714 21.7913 32.798 21.7611 32.8279 21.7308C32.8611 21.6938 32.8943 21.6568 32.9275 21.6232C32.9607 21.5895 32.9939 21.5559 33.0271 21.5223C33.0636 21.4886 33.0968 21.455 33.1333 21.4214C33.1798 21.381 33.2263 21.3373 33.2728 21.2969C33.306 21.27 33.3359 21.2431 33.3691 21.2162C33.4454 21.1523 33.5251 21.0918 33.6015 21.0346C33.6413 21.0043 33.6779 20.9774 33.7177 20.9505C33.7443 20.9303 33.7708 20.9101 33.8007 20.8933C33.804 20.8899 33.8107 20.8866 33.814 20.8866C33.8372 20.8698 33.8605 20.8563 33.8837 20.8395C33.9767 20.779 34.0697 20.7218 34.1626 20.668C34.1892 20.6512 34.2191 20.6377 34.2456 20.6209C34.3286 20.5738 34.4117 20.5334 34.4947 20.4931C37.2837 18.9829 40.6571 19.3092 43.5757 20.5603C43.9642 20.7554 44.419 20.9539 44.8075 21.2162C44.8706 21.2801 45.196 21.4113 45.196 21.4785L45.2591 21.8721L45.714 24.3677H45.455C45.1296 23.7118 44.6116 22.7903 44.2232 22.3295C43.0544 20.7521 40.5243 19.965 38.3197 19.965C38.1636 19.965 38.0075 19.9717 37.8515 19.9852C37.8116 19.9886 37.7751 19.9919 37.7353 19.9953C37.712 19.9987 37.6888 20.002 37.6656 20.002C37.639 20.0054 37.6157 20.0087 37.5892 20.0121C37.5427 20.0188 37.4995 20.0256 37.4564 20.0323C37.4198 20.039 37.3866 20.0457 37.3501 20.0491C37.3103 20.0558 37.2704 20.0626 37.2306 20.0726C37.2073 20.0794 37.1808 20.0827 37.1575 20.0895C37.1243 20.0962 37.0911 20.1029 37.0579 20.113C37.038 20.1164 37.0148 20.1231 36.9949 20.1298C36.9583 20.1366 36.9251 20.1466 36.8886 20.1567C36.7824 20.1836 36.6794 20.2173 36.5765 20.2509C36.5433 20.261 36.5101 20.2711 36.4769 20.2845C36.4437 20.2946 36.4105 20.3081 36.3773 20.3215C36.3407 20.335 36.3042 20.3484 36.2677 20.3619C36.2378 20.3754 36.2079 20.3854 36.1747 20.3989C36.1415 20.4124 36.1117 20.4258 36.0784 20.4393C36.0419 20.4561 36.0054 20.4695 35.9722 20.4863C35.8925 20.5233 35.8161 20.5603 35.7398 20.6007C35.7066 20.6175 35.6734 20.6343 35.6402 20.6512C35.607 20.668 35.5738 20.6881 35.5406 20.705C35.504 20.7251 35.4708 20.7453 35.4343 20.7655C35.3679 20.8059 35.3048 20.8462 35.2417 20.8866C35.2085 20.9068 35.1786 20.9269 35.1454 20.9505C35.1156 20.9707 35.0824 20.9942 35.0525 21.0178C35.0292 21.0346 35.006 21.0514 34.9827 21.0682C34.9163 21.1153 34.8533 21.1657 34.7902 21.2196C34.7603 21.2431 34.7271 21.27 34.6972 21.2969C34.6673 21.3238 34.6374 21.3507 34.6042 21.3776C34.5777 21.4045 34.5478 21.4281 34.5212 21.455C34.4947 21.4819 34.4648 21.5088 34.4382 21.5357C34.3984 21.5761 34.3585 21.6131 34.322 21.6534C34.2822 21.6972 34.2423 21.7375 34.2025 21.7812C34.1792 21.8082 34.1593 21.8317 34.1361 21.8586C34.1062 21.8956 34.0763 21.9326 34.0431 21.9696C34.0398 21.973 34.0398 21.973 34.0365 21.9763C34.0199 21.9999 33.9999 22.02 33.9833 22.0436C33.9601 22.0739 33.9368 22.1041 33.9136 22.1344C33.8738 22.1882 33.8372 22.242 33.8007 22.2958C33.7708 22.3396 33.741 22.3867 33.7144 22.4304C33.7111 22.4371 33.7077 22.4438 33.7011 22.4506C33.6878 22.4707 33.6779 22.4909 33.6646 22.5111C33.6413 22.5481 33.6214 22.5851 33.6015 22.6221C33.5949 22.6355 33.5849 22.649 33.5783 22.6658C33.5716 22.6793 33.5617 22.6927 33.555 22.7095C33.5185 22.7768 33.4853 22.8441 33.4554 22.9113V22.9147C33.4255 22.982 33.3956 23.0492 33.3691 23.1199C33.3392 23.1972 33.3093 23.278 33.2827 23.3553C33.2595 23.4226 33.2396 23.4932 33.2197 23.5638C33.213 23.5907 33.2031 23.6177 33.1964 23.6446C33.1931 23.6546 33.1898 23.6614 33.1898 23.6715C33.1732 23.7387 33.1599 23.806 33.1433 23.8733C33.1333 23.9204 33.1267 23.9674 33.1167 24.0179C33.1167 24.0246 33.1134 24.0313 33.1134 24.0347C33.1134 24.0381 33.1134 24.0414 33.1134 24.0414C33.1068 24.0751 33.1035 24.1053 33.1001 24.139C33.0935 24.1793 33.0902 24.2197 33.0835 24.2567H31.5429C31.5429 24.2601 31.5429 24.2533 31.5462 24.2432ZM22.4685 24.5729H41.8392V31.6494C41.6964 31.5519 41.5503 31.4543 41.4075 31.3601C41.1253 25.8476 38.4226 25.1043 33.3724 25.0034C33.2695 25 33.1699 25 33.0669 24.9966C32.549 24.9899 32.0111 24.9865 31.4466 24.9865C31.347 24.9865 31.2441 24.9865 31.1445 24.9865H27.4457V36.3615C26.6886 36.8694 25.9714 37.4714 25.3107 38.1575C25.0916 38.3862 24.8857 38.6183 24.6832 38.8605V28.0102C24.6832 25.1682 24.4574 24.9865 22.4652 24.9865V24.5729H22.4685ZM24.6832 39.3448C24.816 39.1733 24.9521 39.0085 25.0916 38.847C25.1546 38.773 25.2211 38.699 25.2875 38.6284C25.3007 38.615 25.314 38.5981 25.3273 38.5847C25.3439 38.5679 25.3572 38.5511 25.3738 38.5342C25.4236 38.4771 25.4767 38.4232 25.5298 38.3694C25.5863 38.3089 25.6461 38.2517 25.7025 38.1912C25.7058 38.1878 25.7091 38.1844 25.7125 38.1811C25.749 38.1441 25.7822 38.1105 25.8187 38.0768C25.8253 38.0701 25.832 38.0634 25.8386 38.0566C25.8453 38.0499 25.8486 38.0465 25.8552 38.0398C25.905 37.9894 25.9582 37.9423 26.008 37.8918C26.081 37.8246 26.1574 37.7539 26.2304 37.6867L26.2337 37.6833C26.2669 37.653 26.3001 37.6228 26.3367 37.5925C26.3732 37.5622 26.4097 37.5319 26.4429 37.4983C26.4462 37.495 26.4496 37.4916 26.4529 37.4916C26.7716 37.2192 27.1037 36.9635 27.4423 36.7315C29.3615 35.4029 31.5761 34.6865 33.8273 34.6865V34.8177C31.6658 34.8177 29.5673 35.4803 27.7445 36.6844C27.6416 36.7516 27.5419 36.8189 27.4423 36.8895C27.3826 36.9299 27.3228 36.9736 27.2664 37.0174C27.1933 37.0712 27.1169 37.1283 27.0439 37.1855C26.9908 37.2259 26.9376 37.2662 26.8845 37.31C26.8248 37.3571 26.765 37.4075 26.7019 37.458C26.6587 37.495 26.6156 37.5319 26.5724 37.5689C26.5359 37.5992 26.4994 37.6295 26.4628 37.6631C26.4031 37.7136 26.3433 37.7674 26.2869 37.8212C26.2171 37.8851 26.1474 37.949 26.0777 38.0163C26.0046 38.0835 25.9349 38.1542 25.8619 38.2248C25.7888 38.2954 25.7224 38.3661 25.6527 38.4401C25.563 38.5342 25.4767 38.625 25.3904 38.7226C25.3505 38.7663 25.3107 38.81 25.2709 38.8538C25.1845 38.9547 25.0982 39.0556 25.0152 39.1565C24.9654 39.217 24.9123 39.2809 24.8658 39.3448C24.8027 39.4255 24.7396 39.5063 24.6798 39.5836C23.0695 41.7295 22.1498 44.3764 22.1498 46.9797C22.1498 49.6805 22.9666 52.0046 24.3379 53.8746C24.3312 53.9755 24.3246 54.0764 24.3146 54.1773C22.8437 52.1929 22.017 49.7276 22.017 46.9797C22.0236 44.2486 22.9964 41.5209 24.6832 39.3448ZM22.4685 56.4375C23.707 56.4375 24.2714 56.0474 24.5171 54.9139C24.5437 54.7928 24.567 54.6616 24.5869 54.5204C24.6002 54.4296 24.6101 54.3354 24.6201 54.2345C24.6334 54.0865 24.6466 53.9318 24.6566 53.767C24.6798 53.3701 24.6865 52.9194 24.6865 52.4082V40.1083C25.0451 39.5937 25.4435 39.106 25.8752 38.652C26.3666 38.1374 26.8945 37.6766 27.4457 37.273V40.3505H31.6558C34.0995 40.3505 36.8587 40.3034 36.8587 35.857H37.2671V45.2543H36.8587C36.8587 40.8079 34.0531 40.7608 31.6558 40.7608H27.4457V52.0382C27.4457 55.8422 28.3521 56.4375 30.4339 56.4375V56.8512H22.4685V56.4375ZM35.3878 59.2661C32.373 59.2661 29.7035 58.4993 27.5585 57.1539H28.04C30.1849 58.3984 32.7382 59.0677 35.3878 59.0677C44.7278 59.0677 48.8151 52.1694 48.8151 46.0581C48.8151 34.3603 31.43 31.6662 31.43 25.4238C31.43 25.3801 31.43 25.3363 31.4333 25.2926H31.4466C32.1074 25.2926 32.6054 25.296 33.0636 25.3027H33.1367C33.7144 27.2266 37.3003 29.0024 41.1153 31.5283C41.1585 31.5552 41.2017 31.5855 41.2448 31.6158C41.3046 31.6561 41.3644 31.6931 41.4241 31.7335C41.4939 31.7806 41.5636 31.8277 41.6366 31.8747C41.7064 31.9218 41.7728 31.9689 41.8425 32.016C41.9155 32.0665 41.9853 32.1135 42.0583 32.164C46.5739 35.2852 51.0895 39.5433 51.0895 46.3844C51.0862 51.7725 45.8966 59.2661 35.3878 59.2661Z" fill="#D61962"/>
<path d="M230.213 50.5314C230.213 50.6828 230.164 50.8106 230.064 50.9115C229.964 51.0124 229.841 51.0628 229.689 51.0628C229.539 51.0628 229.416 51.0124 229.314 50.9081C229.211 50.8038 229.161 50.6794 229.161 50.528C229.161 50.3767 229.211 50.2523 229.314 50.148C229.416 50.0437 229.539 49.9933 229.685 49.9933C229.831 49.9933 229.954 50.0437 230.054 50.148C230.154 50.2523 230.213 50.3801 230.213 50.5314Z" fill="#050505"/>
<path d="M229.058 46.0985L229.416 45.7285C229.675 45.9303 229.875 46.1725 230.011 46.4584C230.147 46.7442 230.217 47.057 230.217 47.4001C230.217 47.9584 230.044 48.4058 229.699 48.7354C229.353 49.065 228.888 49.2331 228.311 49.2331C227.73 49.2331 227.262 49.0717 226.906 48.7488C226.551 48.4259 226.372 48.0022 226.372 47.4775C226.372 47.2387 226.408 47.0268 226.481 46.8418C226.554 46.6568 226.667 46.492 226.82 46.344H226.471V45.8025H227.733V46.2936C227.471 46.3978 227.275 46.5458 227.142 46.7308C227.009 46.9158 226.943 47.1411 226.943 47.4001C226.943 47.7331 227.069 48.0022 227.318 48.2073C227.567 48.4125 227.899 48.5134 228.311 48.5134C228.729 48.5134 229.055 48.4058 229.29 48.1871C229.526 47.9685 229.642 47.6658 229.642 47.2723C229.642 47.047 229.596 46.8351 229.499 46.64C229.403 46.4449 229.254 46.2666 229.058 46.0985Z" fill="#050505"/>
<path d="M228.284 45.2644C227.74 45.2644 227.285 45.0726 226.92 44.6859C226.554 44.2991 226.372 43.8181 226.372 43.2396C226.372 42.6577 226.554 42.1768 226.92 41.79C227.285 41.4032 227.74 41.2115 228.284 41.2115C228.829 41.2115 229.287 41.4032 229.655 41.79C230.024 42.1768 230.207 42.6577 230.207 43.2396C230.207 43.8181 230.024 44.2991 229.655 44.6859C229.287 45.0726 228.829 45.2644 228.284 45.2644ZM228.284 44.5446C228.669 44.5446 228.991 44.4202 229.247 44.1713C229.503 43.9224 229.629 43.6129 229.629 43.2396C229.629 42.8629 229.503 42.5535 229.25 42.3046C228.998 42.0557 228.676 41.9312 228.284 41.9312C227.892 41.9312 227.57 42.0557 227.318 42.3046C227.066 42.5535 226.939 42.8663 226.939 43.2396C226.939 43.6096 227.066 43.919 227.321 44.1713C227.577 44.4235 227.899 44.5446 228.284 44.5446Z" fill="#050505"/>
<path d="M226.986 39.4524C226.734 39.1901 226.568 38.9681 226.491 38.7899C226.415 38.6116 226.372 38.4098 226.372 38.1844C226.372 37.9221 226.428 37.7068 226.541 37.542C226.654 37.3772 226.82 37.2662 227.042 37.2124C226.807 36.9904 226.637 36.7752 226.531 36.5734C226.425 36.3716 226.375 36.1563 226.375 35.9276C226.375 35.524 226.478 35.2314 226.687 35.0498C226.896 34.8682 227.228 34.774 227.683 34.774H229.576V34.2022H230.124V36.0151H229.576V35.4601H227.932C227.557 35.4601 227.305 35.5072 227.179 35.598C227.052 35.6888 226.989 35.8469 226.989 36.0655C226.989 36.274 227.046 36.4691 227.162 36.6507C227.278 36.8324 227.441 36.9871 227.653 37.1149H229.576V36.5431H230.124V38.3728H229.576V37.801H227.932C227.56 37.801 227.311 37.8447 227.182 37.9322C227.052 38.0196 226.989 38.1676 226.989 38.3728C226.989 38.5578 227.039 38.7394 227.142 38.9143C227.245 39.0892 227.404 39.2708 227.62 39.4558H229.572V38.9008H230.12V40.7137H229.572V40.1419H227.019V40.7137H226.471V39.4558H226.986V39.4524Z" fill="#050505"/>
</svg>
