<svg width="269" height="59" viewBox="0 0 269 59" fill="none" xmlns="http://www.w3.org/2000/svg">
<path d="M64.6748 37.3264V34.814H66.6118V21.7672H64.6748V19.2549H78.4342V24.1792H75.6174V21.794H69.8467V26.3135H74.9918V29.0199H69.8467V34.814H72.2118V37.3264H64.6748Z" fill="#0977AF"/>
<path d="M86.5166 35.7474C85.8208 36.3997 85.1417 36.8781 84.476 37.1825C83.8103 37.4836 83.1111 37.6375 82.3751 37.6375C81.1407 37.6375 80.2308 37.303 79.642 36.6372C79.0532 35.9715 78.7588 34.9479 78.7588 33.5696V28.0899H77.1296V25.6646H81.6626V32.9172C81.6626 33.5395 81.8231 34.0145 82.1409 34.3457C82.4588 34.6769 82.9137 34.8408 83.5025 34.8408C84.0244 34.8408 84.5362 34.7003 85.0347 34.4226C85.5331 34.145 86.0282 33.7168 86.5166 33.138V28.0899H84.8875V25.6646H89.4204V34.891H91.0262V37.3297H86.5166V35.7474Z" fill="#0977AF"/>
<path d="M96.8836 32.857C96.8836 33.8874 96.9639 34.513 97.1278 34.7371C97.2917 34.9613 97.7835 35.075 98.6098 35.075C98.66 35.075 98.7536 35.0616 98.8908 35.0382C98.9477 35.0315 98.9878 35.0248 99.0146 35.0248V37.3264C98.7135 37.3599 98.399 37.3833 98.0779 37.4C97.7567 37.4167 97.4155 37.4234 97.0542 37.4234C95.8131 37.4234 94.9901 37.2394 94.592 36.8714C94.1906 36.5035 93.9932 35.6504 93.9932 34.3123V28.0899H91.9727V25.6646H93.9932V21.5498H96.8836V25.6646H99.0146V28.0899H96.8836V32.857Z" fill="#0977AF"/>
<path d="M109.93 35.7474C109.235 36.3997 108.556 36.8781 107.89 37.1825C107.224 37.4836 106.525 37.6375 105.789 37.6375C104.555 37.6375 103.645 37.303 103.056 36.6372C102.467 35.9715 102.173 34.9479 102.173 33.5696V28.0899H100.543V25.6646H105.076V32.9172C105.076 33.5395 105.237 34.0145 105.555 34.3457C105.873 34.6769 106.328 34.8408 106.916 34.8408C107.438 34.8408 107.95 34.7003 108.448 34.4226C108.947 34.145 109.442 33.7168 109.93 33.138V28.0899H108.301V25.6646H112.834V34.891H114.44V37.3297H109.93V35.7474Z" fill="#0977AF"/>
<path d="M120.317 27.3438L120.465 27.2936C120.629 26.7048 120.893 26.2532 121.261 25.9354C121.629 25.6176 122.074 25.457 122.596 25.457C123.191 25.457 123.683 25.6544 124.071 26.0458C124.459 26.4372 124.653 26.9357 124.653 27.5412C124.653 28.1467 124.462 28.6384 124.078 29.0232C123.693 29.4079 123.191 29.5986 122.572 29.5986C122.107 29.5986 121.696 29.4614 121.341 29.1871C120.986 28.9128 120.702 28.5147 120.491 27.9928L120.321 28.0664V34.8909H121.95V37.3296H115.774V34.8909H117.404V28.0898H115.774V25.6644H120.321V27.3438H120.317Z" fill="#0977AF"/>
<path d="M137.713 33.884C137.369 35.0783 136.69 35.9982 135.666 36.6539C134.642 37.3096 133.371 37.6341 131.842 37.6341C129.905 37.6341 128.346 37.0687 127.162 35.9447C125.978 34.8207 125.386 33.3387 125.386 31.5088C125.386 29.719 125.988 28.2504 127.192 27.103C128.397 25.9555 129.939 25.3801 131.815 25.3801C133.686 25.3801 135.188 25.9856 136.325 27.2C137.459 28.4143 138.028 30.0335 138.028 32.0574V32.3518H128.373C128.47 33.2517 128.825 33.9408 129.44 34.4226C130.052 34.9043 130.879 35.1452 131.916 35.1452C132.561 35.1452 133.14 35.0348 133.655 34.814C134.171 34.5932 134.565 34.2821 134.843 33.884H137.713ZM128.38 30.3078H135.154C134.917 29.4982 134.515 28.886 133.946 28.4712C133.378 28.0564 132.672 27.8456 131.822 27.8456C130.939 27.8456 130.193 28.0631 129.587 28.4946C128.979 28.9295 128.577 29.5317 128.38 30.3078Z" fill="#0977AF"/>
<path d="M143.056 35.7976V37.3297H140.447V31.2044H143.056C143.401 32.5024 143.932 33.4893 144.655 34.1617C145.378 34.8341 146.278 35.172 147.358 35.172C148.181 35.172 148.877 34.911 149.439 34.3892C150.004 33.8673 150.285 33.225 150.285 32.4656C150.285 31.7798 150.041 31.2211 149.556 30.7862C149.071 30.3547 148.251 29.9733 147.1 29.6455L145.043 29.0701C143.394 28.6118 142.196 27.9862 141.447 27.19C140.701 26.3938 140.326 25.3568 140.326 24.0855C140.326 22.6169 140.845 21.3858 141.882 20.399C142.919 19.4121 144.213 18.917 145.766 18.917C146.599 18.917 147.371 19.0475 148.081 19.3084C148.79 19.5693 149.399 19.9507 149.907 20.4492V19.2616H152.42V24.6375H149.907C149.62 23.567 149.175 22.7708 148.572 22.2423C147.967 21.7137 147.201 21.4528 146.271 21.4528C145.488 21.4528 144.849 21.6669 144.354 22.0951C143.859 22.5233 143.611 23.0686 143.611 23.7309C143.611 24.2929 143.769 24.7412 144.083 25.0724C144.397 25.4036 144.949 25.6846 145.742 25.9121L147.933 26.5377C149.951 27.1264 151.369 27.8423 152.192 28.6887C153.012 29.5351 153.423 30.6658 153.423 32.0876C153.423 33.777 152.911 35.1352 151.884 36.1555C150.861 37.1758 149.496 37.6877 147.8 37.6877C146.836 37.6877 145.953 37.5271 145.153 37.2093C144.351 36.8881 143.651 36.4164 143.056 35.7976Z" fill="#0977AF"/>
<path d="M155.049 31.4854C155.049 29.7559 155.665 28.3007 156.899 27.1231C158.133 25.9455 159.669 25.3601 161.506 25.3601C163.342 25.3601 164.878 25.9489 166.105 27.1231C167.333 28.2973 167.949 29.7525 167.949 31.4854C167.949 33.2083 167.336 34.6535 166.112 35.821C164.888 36.9885 163.352 37.5739 161.506 37.5739C159.669 37.5739 158.133 36.9885 156.899 35.821C155.665 34.6535 155.049 33.2083 155.049 31.4854ZM158.063 31.4854C158.063 32.5057 158.394 33.3588 159.057 34.0446C159.719 34.7304 160.535 35.075 161.506 35.075C162.476 35.075 163.292 34.7337 163.951 34.0513C164.61 33.3688 164.938 32.5124 164.938 31.4854C164.938 30.4316 164.61 29.5652 163.958 28.8894C163.305 28.2103 162.489 27.8725 161.509 27.8725C160.529 27.8725 159.709 28.2137 159.053 28.8961C158.391 29.5752 158.063 30.4383 158.063 31.4854Z" fill="#0977AF"/>
<path d="M178.389 35.7474C177.694 36.3997 177.015 36.8781 176.349 37.1825C175.683 37.4836 174.984 37.6375 174.248 37.6375C173.013 37.6375 172.104 37.303 171.515 36.6372C170.926 35.9715 170.632 34.9479 170.632 33.5696V28.0899H169.002V25.6646H173.535V32.9172C173.535 33.5395 173.696 34.0145 174.014 34.3457C174.332 34.6769 174.787 34.8408 175.375 34.8408C175.897 34.8408 176.409 34.7003 176.907 34.4226C177.406 34.145 177.901 33.7168 178.389 33.138V28.0899H176.76V25.6646H181.293V34.891H182.899V37.3297H178.389V35.7474Z" fill="#0977AF"/>
<path d="M185.813 21.6971H184.06V19.2583H188.703V34.8911H190.406V37.3298H184.036V34.8911H185.813V21.6971Z" fill="#0977AF"/>
<path d="M196.531 34.8175H198.689V37.3298H191.413V34.8175H193.35V21.7706H191.413V19.2583H198.445L201.994 29.6221L205.584 19.2583H212.358V21.7706H210.434V34.8175H212.358V37.3298H205.082V34.8175H207.24V22.6036L202.78 34.9145H201.054L196.535 22.6036V34.8175H196.531Z" fill="#0977AF"/>
<path d="M226.131 34.891H227.76V37.3297H223.227V36.0786C222.739 36.577 222.18 36.9584 221.554 37.2193C220.929 37.4803 220.266 37.6107 219.564 37.6107C217.831 37.6107 216.413 37.0353 215.302 35.8845C214.191 34.7337 213.636 33.2685 213.636 31.4854C213.636 29.7559 214.198 28.3007 215.325 27.1231C216.453 25.9455 217.864 25.3601 219.564 25.3601C220.256 25.3601 220.909 25.4872 221.511 25.7448C222.116 26.0024 222.688 26.3938 223.227 26.9157V25.6645H227.76V28.0899H226.131V34.891ZM216.6 31.5088C216.6 32.5392 216.911 33.3755 217.537 34.0279C218.162 34.6769 218.968 35.0014 219.955 35.0014C220.919 35.0014 221.722 34.6735 222.364 34.0145C223.006 33.3588 223.327 32.5225 223.327 31.5088C223.327 30.4952 223.006 29.6555 222.361 28.9898C221.715 28.3241 220.915 27.9929 219.959 27.9929C218.968 27.9929 218.162 28.3207 217.54 28.9731C216.911 29.6254 216.6 30.4718 216.6 31.5088Z" fill="#0977AF"/>
<path d="M233.761 32.857C233.761 33.8874 233.842 34.513 234.005 34.7371C234.169 34.9613 234.661 35.075 235.487 35.075C235.538 35.075 235.631 35.0616 235.768 35.0382C235.825 35.0315 235.866 35.0248 235.892 35.0248V37.3264C235.591 37.3599 235.277 37.3833 234.956 37.4C234.634 37.4167 234.293 37.4234 233.932 37.4234C232.691 37.4234 231.868 37.2394 231.47 36.8714C231.068 36.5035 230.871 35.6504 230.871 34.3123V28.0899H228.85V25.6646H230.871V21.5498H233.761V25.6646H235.892V28.0899H233.761V32.857Z" fill="#0977AF"/>
<path d="M249.996 33.884C249.652 35.0783 248.973 35.9982 247.949 36.6539C246.925 37.3096 245.654 37.6341 244.125 37.6341C242.188 37.6341 240.629 37.0687 239.445 35.9447C238.261 34.8207 237.669 33.3387 237.669 31.5088C237.669 29.719 238.271 28.2504 239.475 27.103C240.68 25.9555 242.222 25.3801 244.098 25.3801C245.968 25.3801 247.471 25.9856 248.608 27.2C249.742 28.4143 250.311 30.0335 250.311 32.0574V32.3518H240.656C240.753 33.2517 241.108 33.9408 241.723 34.4226C242.335 34.9043 243.162 35.1452 244.199 35.1452C244.844 35.1452 245.423 35.0348 245.938 34.814C246.454 34.5932 246.848 34.2821 247.126 33.884H249.996ZM240.659 30.3078H247.434C247.196 29.4982 246.795 28.886 246.226 28.4712C245.657 28.0564 244.951 27.8456 244.102 27.8456C243.219 27.8456 242.473 28.0631 241.867 28.4946C241.258 28.9295 240.857 29.5317 240.659 30.3078Z" fill="#0977AF"/>
<path d="M254.539 37.3263H252.358V33.2584H254.636C254.931 33.9776 255.379 34.5229 255.985 34.9009C256.59 35.279 257.329 35.4629 258.203 35.4629C258.724 35.4629 259.149 35.3358 259.47 35.0849C259.792 34.834 259.955 34.4995 259.955 34.0914C259.955 33.7468 259.832 33.4859 259.588 33.3019C259.343 33.1179 258.788 32.9439 257.922 32.78L255.998 32.4622C254.717 32.2347 253.767 31.8299 253.151 31.2545C252.536 30.6791 252.228 29.9097 252.228 28.9462C252.228 27.859 252.612 26.9892 253.385 26.3369C254.158 25.6845 255.185 25.3567 256.466 25.3567C257.169 25.3567 257.794 25.4504 258.346 25.6377C258.898 25.825 259.36 26.0994 259.738 26.4573L259.761 25.6611H261.943V29.3477H259.577C259.373 28.7288 259.036 28.2537 258.561 27.9259C258.085 27.5981 257.507 27.4375 256.821 27.4375C256.266 27.4375 255.824 27.5512 255.493 27.7821C255.162 28.0095 254.998 28.3039 254.998 28.6652C254.998 29.3443 255.75 29.8194 257.252 30.097C257.326 30.1037 257.383 30.1138 257.423 30.1204L258.758 30.3546C260.146 30.6089 261.17 31.027 261.832 31.6158C262.495 32.2046 262.826 32.9874 262.826 33.9676C262.826 35.0281 262.414 35.9045 261.595 36.597C260.775 37.2862 259.701 37.6307 258.38 37.6307C257.711 37.6307 257.062 37.5337 256.44 37.343C255.814 37.1523 255.192 36.858 254.573 36.4665L254.539 37.3263Z" fill="#0977AF"/>
<path d="M56.4952 23.46L35.5367 2.50147C32.2014 -0.833825 26.792 -0.833825 23.4567 2.50147L2.50147 23.46C-0.833825 26.7953 -0.833825 32.2047 2.50147 35.54L23.46 56.4985C26.7953 59.8338 32.2047 59.8338 35.54 56.4985L56.4985 35.54C59.8338 32.2014 59.8338 26.7953 56.4952 23.46ZM24.4536 14.4477C24.4603 14.4242 24.4636 14.3975 24.4703 14.3741C24.477 14.3473 24.4803 14.3239 24.487 14.3005C24.4904 14.2804 24.4971 14.2603 24.5004 14.2403C24.5004 14.2369 24.5037 14.2336 24.5037 14.2302C24.5104 14.1968 24.5205 14.16 24.5305 14.1265C24.5372 14.0998 24.5439 14.073 24.5539 14.0462C24.564 14.0094 24.574 13.9726 24.584 13.9392C24.584 13.9358 24.5874 13.9325 24.5874 13.9291C24.5941 13.9057 24.6008 13.8823 24.6108 13.8622C24.6208 13.8288 24.6309 13.7987 24.6442 13.7652C24.6576 13.7284 24.671 13.6916 24.6844 13.6582C24.7011 13.608 24.7212 13.5545 24.7446 13.5076C24.748 13.5009 24.7513 13.4909 24.7546 13.4842C24.7647 13.4608 24.7747 13.4374 24.7848 13.414C24.8048 13.3638 24.8282 13.3169 24.8483 13.2701C24.865 13.23 24.8851 13.1932 24.9052 13.153C24.9219 13.1196 24.9386 13.0895 24.9554 13.0594C24.9721 13.0226 24.9922 12.9891 25.0122 12.9556C25.049 12.8921 25.0825 12.8285 25.1226 12.7683C25.1427 12.7315 25.1661 12.6947 25.1895 12.6613C25.1962 12.6512 25.2029 12.6378 25.2096 12.6278C25.2397 12.581 25.2698 12.5375 25.3033 12.4906C25.33 12.4505 25.3602 12.4104 25.3903 12.3702C25.4103 12.3435 25.4304 12.3167 25.4505 12.2933C25.4739 12.2632 25.4973 12.2331 25.5207 12.2063C25.5408 12.1795 25.5642 12.1528 25.5876 12.126C25.6144 12.0959 25.6378 12.0658 25.6612 12.039C25.688 12.0089 25.7148 11.9788 25.7449 11.9487C25.7783 11.9119 25.8118 11.8751 25.8452 11.8417C25.8787 11.8082 25.9121 11.7747 25.9456 11.7413C25.9824 11.7078 26.0158 11.6744 26.0526 11.6409C26.0995 11.6008 26.1463 11.5573 26.1931 11.5172C26.2266 11.4904 26.2567 11.4636 26.2902 11.4369C26.3671 11.3733 26.4474 11.3131 26.5243 11.2562C26.5645 11.2261 26.6013 11.1993 26.6414 11.1726C26.6682 11.1525 26.6949 11.1324 26.725 11.1157C26.7284 11.1124 26.7351 11.109 26.7384 11.109C26.7618 11.0923 26.7853 11.0789 26.8087 11.0622C26.9023 11.002 26.996 10.9451 27.0897 10.8916C27.1165 10.8748 27.1466 10.8615 27.1733 10.8447C27.257 10.7979 27.3406 10.7578 27.4242 10.7176C30.2343 9.21556 33.6332 9.54006 36.5737 10.7845C36.9651 10.9786 37.4234 11.1759 37.8148 11.4369C37.8784 11.5004 38.2062 11.6309 38.2062 11.6978L38.2698 12.0892L38.7281 14.5714H38.4672C38.1393 13.9191 37.6175 13.0025 37.2261 12.5442C36.0485 10.9752 33.4994 10.1924 31.278 10.1924C31.1208 10.1924 30.9636 10.1991 30.8064 10.2125C30.7662 10.2158 30.7294 10.2192 30.6893 10.2225C30.6659 10.2259 30.6424 10.2292 30.619 10.2292C30.5923 10.2325 30.5688 10.2359 30.5421 10.2392C30.4952 10.2459 30.4518 10.2526 30.4083 10.2593C30.3715 10.266 30.338 10.2727 30.3012 10.276C30.2611 10.2827 30.2209 10.2894 30.1808 10.2995C30.1574 10.3061 30.1306 10.3095 30.1072 10.3162C30.0737 10.3229 30.0403 10.3296 30.0068 10.3396C29.9867 10.3429 29.9633 10.3496 29.9433 10.3563C29.9065 10.363 29.873 10.373 29.8362 10.3831C29.7292 10.4098 29.6255 10.4433 29.5217 10.4768C29.4883 10.4868 29.4548 10.4968 29.4214 10.5102C29.3879 10.5202 29.3545 10.5336 29.321 10.547C29.2842 10.5604 29.2474 10.5738 29.2106 10.5871C29.1805 10.6005 29.1504 10.6106 29.117 10.6239C29.0835 10.6373 29.0534 10.6507 29.0199 10.6641C28.9831 10.6808 28.9464 10.6942 28.9129 10.7109C28.8326 10.7477 28.7557 10.7845 28.6787 10.8247C28.6453 10.8414 28.6118 10.8581 28.5784 10.8748C28.5449 10.8916 28.5115 10.9116 28.478 10.9284C28.4412 10.9484 28.4078 10.9685 28.371 10.9886C28.304 11.0287 28.2405 11.0689 28.1769 11.109C28.1435 11.1291 28.1134 11.1492 28.0799 11.1726C28.0498 11.1927 28.0163 11.2161 27.9862 11.2395C27.9628 11.2562 27.9394 11.2729 27.916 11.2897C27.8491 11.3365 27.7855 11.3867 27.722 11.4402C27.6919 11.4636 27.6584 11.4904 27.6283 11.5172C27.5982 11.5439 27.5681 11.5707 27.5346 11.5974C27.5079 11.6242 27.4777 11.6476 27.451 11.6744C27.4242 11.7011 27.3941 11.7279 27.3674 11.7547C27.3272 11.7948 27.2871 11.8316 27.2503 11.8718C27.2101 11.9152 27.17 11.9554 27.1298 11.9989C27.1064 12.0256 27.0863 12.0491 27.0629 12.0758C27.0328 12.1126 27.0027 12.1494 26.9693 12.1862C26.9659 12.1896 26.9659 12.1896 26.9626 12.1929C26.9458 12.2163 26.9258 12.2364 26.909 12.2598C26.8856 12.2899 26.8622 12.32 26.8388 12.3501C26.7986 12.4037 26.7618 12.4572 26.725 12.5107C26.6949 12.5542 26.6648 12.601 26.6381 12.6445C26.6347 12.6512 26.6314 12.6579 26.6247 12.6646C26.6113 12.6847 26.6013 12.7047 26.5879 12.7248C26.5645 12.7616 26.5444 12.7984 26.5243 12.8352C26.5176 12.8486 26.5076 12.862 26.5009 12.8787C26.4942 12.8921 26.4842 12.9055 26.4775 12.9222C26.4407 12.9891 26.4072 13.056 26.3771 13.1229V13.1263C26.347 13.1932 26.3169 13.2601 26.2902 13.3303C26.26 13.4073 26.2299 13.4876 26.2032 13.5645C26.1798 13.6314 26.1597 13.7017 26.1396 13.7719C26.1329 13.7987 26.1229 13.8254 26.1162 13.8522C26.1129 13.8622 26.1095 13.8689 26.1095 13.879C26.0928 13.9459 26.0794 14.0128 26.0627 14.0797C26.0526 14.1265 26.0459 14.1733 26.0359 14.2235C26.0359 14.2302 26.0326 14.2369 26.0326 14.2403C26.0326 14.2436 26.0326 14.2469 26.0326 14.2469C26.0259 14.2804 26.0225 14.3105 26.0192 14.344C26.0125 14.3841 26.0091 14.4242 26.0025 14.461H24.4502C24.4502 14.461 24.4502 14.4544 24.4536 14.4477ZM15.3074 14.7755H34.8241V21.8141C34.6803 21.7171 34.5331 21.6201 34.3892 21.5264C34.1049 16.0434 31.3818 15.3041 26.2935 15.2037C26.1898 15.2004 26.0894 15.2004 25.9857 15.197C25.4639 15.1903 24.9219 15.187 24.3532 15.187C24.2528 15.187 24.1491 15.187 24.0488 15.187H20.3221V26.5009C19.5593 27.0061 18.8367 27.6049 18.171 28.2873C17.9502 28.5148 17.7428 28.7456 17.5388 28.9865V18.1944C17.5388 15.3676 17.3113 15.187 15.3041 15.187V14.7755H15.3074ZM17.5388 29.4682C17.6726 29.2976 17.8097 29.1337 17.9502 28.9731C18.0138 28.8995 18.0807 28.8259 18.1476 28.7557C18.161 28.7423 18.1744 28.7256 18.1878 28.7122C18.2045 28.6954 18.2179 28.6787 18.2346 28.662C18.2848 28.6051 18.3383 28.5516 18.3918 28.4981C18.4487 28.4379 18.5089 28.381 18.5658 28.3208C18.5691 28.3174 18.5725 28.3141 18.5758 28.3107C18.6126 28.2739 18.6461 28.2405 18.6829 28.207C18.6896 28.2003 18.6962 28.1937 18.7029 28.187C18.7096 28.1803 18.713 28.1769 18.7197 28.1702C18.7698 28.1201 18.8234 28.0732 18.8735 28.023C18.9471 27.9561 19.0241 27.8859 19.0977 27.819L19.101 27.8156C19.1345 27.7855 19.1679 27.7554 19.2047 27.7253C19.2415 27.6952 19.2783 27.6651 19.3118 27.6316C19.3151 27.6283 19.3185 27.6249 19.3218 27.6249C19.643 27.354 19.9775 27.0997 20.3187 26.8689C22.2523 25.5475 24.4837 24.8349 26.7518 24.8349V24.9654C24.574 24.9654 22.4597 25.6244 20.6232 26.8221C20.5195 26.889 20.4191 26.9559 20.3187 27.0261C20.2585 27.0663 20.1983 27.1098 20.1414 27.1532C20.0678 27.2068 19.9909 27.2636 19.9173 27.3205C19.8638 27.3607 19.8102 27.4008 19.7567 27.4443C19.6965 27.4911 19.6363 27.5413 19.5727 27.5915C19.5292 27.6283 19.4857 27.6651 19.4423 27.7019C19.4055 27.732 19.3687 27.7621 19.3319 27.7956C19.2716 27.8457 19.2114 27.8993 19.1546 27.9528C19.0843 28.0163 19.014 28.0799 18.9438 28.1468C18.8702 28.2137 18.7999 28.284 18.7264 28.3542C18.6528 28.4245 18.5858 28.4947 18.5156 28.5683C18.4253 28.662 18.3383 28.7523 18.2513 28.8493C18.2112 28.8928 18.171 28.9363 18.1309 28.9798C18.0439 29.0802 17.9569 29.1805 17.8733 29.2809C17.8231 29.3411 17.7696 29.4047 17.7227 29.4682C17.6592 29.5485 17.5956 29.6288 17.5354 29.7057C15.9129 31.8401 14.9863 34.4728 14.9863 37.0621C14.9863 39.7484 15.8092 42.0601 17.1908 43.9201C17.1842 44.0204 17.1775 44.1208 17.1674 44.2211C15.6854 42.2474 14.8525 39.7953 14.8525 37.0621C14.8591 34.3457 15.836 31.6327 17.5388 29.4682ZM15.3074 46.4659C16.5552 46.4659 17.1239 46.0778 17.3715 44.9504C17.3983 44.83 17.4217 44.6995 17.4417 44.559C17.4551 44.4687 17.4652 44.375 17.4752 44.2747C17.4886 44.1275 17.502 43.9736 17.512 43.8097C17.5354 43.4149 17.5421 42.9667 17.5421 42.4582V30.2209C17.9034 29.7091 18.3048 29.224 18.7397 28.7724C19.2348 28.2606 19.7668 27.8022 20.3221 27.4008V30.4618H24.564C27.0261 30.4618 29.8061 30.415 29.8061 25.9924H30.2176V35.3393H29.8061C29.8061 30.9168 26.9793 30.8699 24.564 30.8699H20.3221V42.0868C20.3221 45.8704 21.2354 46.4625 23.3329 46.4625V46.874H15.3074V46.4659ZM28.3241 49.2793C25.2866 49.2793 22.5969 48.5166 20.4358 47.1784H20.9209C23.082 48.4162 25.6545 49.0819 28.3241 49.0819C37.7345 49.0819 41.8527 42.2206 41.8527 36.1422C41.8527 24.5071 24.3365 21.8275 24.3365 15.6185C24.3365 15.575 24.3365 15.5316 24.3398 15.4881H24.3532C25.0189 15.4881 25.5207 15.4914 25.9824 15.4981H26.056C26.6381 17.4116 30.251 19.178 34.0948 21.6903C34.1383 21.7171 34.1818 21.7472 34.2253 21.7773C34.2855 21.8174 34.3457 21.8542 34.4059 21.8944C34.4762 21.9412 34.5464 21.9881 34.62 22.0349C34.6903 22.0817 34.7572 22.1286 34.8274 22.1754C34.901 22.2256 34.9713 22.2724 35.0449 22.3226C39.5946 25.4271 44.1442 29.6623 44.1442 36.4667C44.1409 41.8292 38.9121 49.2793 28.3241 49.2793Z" fill="#0977AF"/>
<path d="M268.359 38.2731C268.359 38.3935 268.318 38.4939 268.242 38.5742C268.165 38.6544 268.064 38.6946 267.944 38.6946C267.827 38.6946 267.726 38.6544 267.646 38.5742C267.566 38.4939 267.526 38.3935 267.526 38.2764C267.526 38.1593 267.566 38.059 267.649 37.9753C267.733 37.8951 267.83 37.8516 267.947 37.8516C268.064 37.8516 268.161 37.8917 268.242 37.9753C268.318 38.0556 268.359 38.156 268.359 38.2731Z" fill="black"/>
<path d="M267.439 34.784L267.723 34.4929C267.93 34.6535 268.088 34.8442 268.198 35.0683C268.305 35.2925 268.362 35.54 268.362 35.811C268.362 36.2526 268.225 36.6038 267.947 36.8614C267.669 37.1224 267.301 37.2528 266.84 37.2528C266.378 37.2528 266.003 37.1257 265.719 36.8715C265.435 36.6172 265.294 36.286 265.294 35.8712C265.294 35.6839 265.324 35.5166 265.381 35.3727C265.438 35.2289 265.528 35.0984 265.652 34.9813H265.374V34.5565H266.381V34.9445C266.174 35.0282 266.017 35.1419 265.91 35.2891C265.803 35.4363 265.752 35.6103 265.752 35.8177C265.752 36.082 265.853 36.2927 266.054 36.4533C266.254 36.6139 266.519 36.6941 266.846 36.6941C267.181 36.6941 267.439 36.6072 267.626 36.4366C267.813 36.2659 267.907 36.0251 267.907 35.7173C267.907 35.54 267.867 35.3727 267.793 35.2189C267.72 35.065 267.592 34.9144 267.439 34.784Z" fill="black"/>
<path d="M266.82 34.1282C266.385 34.1282 266.024 33.9743 265.729 33.6733C265.435 33.3722 265.291 32.9908 265.291 32.5325C265.291 32.0742 265.438 31.6962 265.729 31.3917C266.02 31.0873 266.385 30.9368 266.82 30.9368C267.255 30.9368 267.619 31.0873 267.914 31.3917C268.208 31.6962 268.355 32.0742 268.355 32.5325C268.355 32.9875 268.208 33.3688 267.914 33.6733C267.619 33.9743 267.255 34.1282 266.82 34.1282ZM266.82 33.5595C267.128 33.5595 267.385 33.4625 267.589 33.2651C267.793 33.0677 267.894 32.8235 267.894 32.5325C267.894 32.2381 267.793 31.9905 267.593 31.7965C267.392 31.6025 267.134 31.5021 266.823 31.5021C266.512 31.5021 266.254 31.5991 266.05 31.7965C265.85 31.9905 265.746 32.2381 265.746 32.5325C265.746 32.8235 265.846 33.0677 266.05 33.2651C266.254 33.4625 266.512 33.5595 266.82 33.5595Z" fill="black"/>
<path d="M265.783 29.5518C265.582 29.3444 265.452 29.1705 265.388 29.03C265.324 28.8895 265.294 28.7289 265.294 28.5549C265.294 28.3475 265.338 28.1802 265.428 28.0498C265.518 27.9193 265.652 27.8323 265.826 27.7888C265.639 27.6115 265.502 27.4443 265.418 27.287C265.335 27.1265 265.291 26.9592 265.291 26.7785C265.291 26.4607 265.375 26.2299 265.539 26.0861C265.702 25.9422 265.97 25.8686 266.335 25.8686H267.844V25.417H268.282V26.8455H267.844V26.4072H266.535C266.234 26.4072 266.034 26.444 265.933 26.5176C265.833 26.5912 265.783 26.7116 265.783 26.8856C265.783 27.0495 265.83 27.2034 265.92 27.3473C266.01 27.4911 266.141 27.6115 266.311 27.7119H267.844V27.2636H268.282V28.7021H267.844V28.2538H266.535C266.241 28.2538 266.04 28.2873 265.937 28.3575C265.833 28.4244 265.783 28.5415 265.783 28.7055C265.783 28.8527 265.823 28.9932 265.903 29.1337C265.984 29.2708 266.111 29.4147 266.285 29.5619H267.844V29.1236H268.282V30.5521H267.844V30.0904H265.806V30.542H265.368V29.5518H265.783Z" fill="black"/>
</svg>
