<svg width="54" height="55" viewBox="0 0 54 55" fill="none" xmlns="http://www.w3.org/2000/svg">
<path d="M26.9999 13.6512C26.4674 13.6512 26.0356 13.2195 26.0356 12.6869C26.0356 12.1544 26.4674 11.7227 26.9999 11.7227" stroke="#D61962" stroke-width="2" stroke-linecap="round" stroke-linejoin="round"/>
<path d="M27 13.6512C27.5326 13.6512 27.9643 13.2195 27.9643 12.6869C27.9643 12.1544 27.5326 11.7227 27 11.7227" stroke="#D61962" stroke-width="2" stroke-linecap="round" stroke-linejoin="round"/>
<path d="M40.5 2.07983H13.5C11.3697 2.07983 9.64282 3.80673 9.64282 5.93698V48.3655C9.64282 50.4958 11.3697 52.2227 13.5 52.2227H40.5C42.6303 52.2227 44.3571 50.4958 44.3571 48.3655V5.93698C44.3571 3.80673 42.6303 2.07983 40.5 2.07983Z" stroke="#D61962" stroke-width="2" stroke-linecap="round" stroke-linejoin="round"/>
</svg>
