<svg width="269" height="85" viewBox="0 0 269 85" fill="none" xmlns="http://www.w3.org/2000/svg">
<path d="M81.4436 57.711V53.5142H84.6432V31.7105H81.4436V27.5137H104.176V35.7434H99.5216V31.7524H89.9871V39.3075H98.489V43.8321H89.9871V53.518H93.8951V57.7148H81.4436V57.711Z" fill="#D61962"/>
<path d="M115.685 55.9958C114.939 56.7048 114.208 57.2232 113.496 57.5548C112.78 57.8826 112.03 58.0465 111.238 58.0465C109.912 58.0465 108.936 57.6844 108.303 56.9602C107.669 56.2359 107.357 55.1267 107.357 53.6248V47.6746H105.604V45.0368H110.473V52.9196C110.473 53.5943 110.643 54.1127 110.986 54.471C111.329 54.8294 111.815 55.0085 112.448 55.0085C113.01 55.0085 113.56 54.856 114.095 54.5549C114.63 54.2538 115.161 53.7887 115.689 53.156V47.6707H113.94V45.033H118.809V55.0581H120.536V57.7073H115.693V55.9958H115.685Z" fill="#D61962"/>
<path d="M126.818 52.8549C126.818 53.9717 126.904 54.654 127.081 54.898C127.259 55.142 127.786 55.2639 128.676 55.2639C128.728 55.2639 128.83 55.2487 128.977 55.222C129.037 55.2144 129.083 55.2106 129.109 55.2106V57.715C128.785 57.7493 128.449 57.7759 128.103 57.795C127.756 57.8141 127.391 57.8217 127.002 57.8217C125.668 57.8217 124.786 57.6235 124.357 57.2232C123.927 56.823 123.712 55.8967 123.712 54.4406V47.6784H121.542V45.0406H123.712V40.5693H126.818V45.0406H129.109V47.6784H126.818V52.8549Z" fill="#D61962"/>
<path d="M140.837 55.9958C140.091 56.7048 139.36 57.2232 138.647 57.5548C137.931 57.8826 137.181 58.0465 136.39 58.0465C135.064 58.0465 134.087 57.6844 133.454 56.9602C132.821 56.2359 132.508 55.1267 132.508 53.6248V47.6746H130.756V45.0368H135.625V52.9196C135.625 53.5943 135.795 54.1127 136.138 54.471C136.481 54.8294 136.967 55.0085 137.6 55.0085C138.161 55.0085 138.712 54.856 139.247 54.5549C139.782 54.2538 140.313 53.7887 140.841 53.156V47.6707H139.092V45.033H143.961V55.0581H145.687V57.7073H140.845V55.9958H140.837Z" fill="#D61962"/>
<path d="M151.996 46.8625L152.154 46.8092C152.327 46.1688 152.614 45.6771 153.01 45.3302C153.405 44.9833 153.884 44.8118 154.445 44.8118C155.086 44.8118 155.614 45.0252 156.032 45.4522C156.45 45.8791 156.658 46.4204 156.658 47.076C156.658 47.7316 156.45 48.2691 156.04 48.6884C155.629 49.1039 155.086 49.3135 154.419 49.3135C153.918 49.3135 153.477 49.1649 153.096 48.8676C152.716 48.5702 152.41 48.1357 152.18 47.5677L151.996 47.6478V55.0618H153.748V57.711H147.115V55.0618H148.868V47.6745H147.115V45.0367H152V46.8625H151.996Z" fill="#D61962"/>
<path d="M170.688 53.9717C170.319 55.2677 169.588 56.2702 168.491 56.9792C167.394 57.6882 166.026 58.0428 164.383 58.0428C162.303 58.0428 160.63 57.429 159.356 56.2054C158.082 54.9818 157.449 53.3733 157.449 51.3873C157.449 49.4433 158.097 47.8499 159.39 46.5996C160.683 45.3494 162.341 44.728 164.357 44.728C166.366 44.728 167.982 45.3875 169.2 46.7064C170.421 48.0253 171.027 49.7825 171.027 51.9858V52.3059H160.656C160.762 53.2818 161.142 54.0327 161.802 54.5549C162.461 55.0771 163.347 55.3402 164.459 55.3402C165.152 55.3402 165.774 55.222 166.328 54.9819C166.882 54.7417 167.308 54.4063 167.606 53.9717H170.688ZM160.656 50.0836H167.933C167.681 49.2069 167.247 48.5399 166.637 48.0863C166.026 47.6326 165.265 47.4077 164.353 47.4077C163.407 47.4077 162.605 47.6441 161.953 48.1129C161.301 48.5818 160.867 49.2412 160.656 50.0836Z" fill="#D61962"/>
<path d="M178.93 55.1533V57.711H174.619V47.4725H178.93C179.496 49.6414 180.377 51.2919 181.572 52.4164C182.767 53.5447 184.255 54.105 186.034 54.105C187.398 54.105 188.544 53.6667 189.475 52.7938C190.406 51.9209 190.873 50.8497 190.873 49.5804C190.873 48.433 190.47 47.4991 189.667 46.7749C188.864 46.0507 187.511 45.4179 185.608 44.869L182.209 43.9084C179.484 43.146 177.502 42.0978 176.27 40.7675C175.033 39.4371 174.415 37.7066 174.415 35.5757C174.415 33.1171 175.271 31.0663 176.986 29.412C178.7 27.7615 180.837 26.9343 183.404 26.9343C184.779 26.9343 186.057 27.1516 187.229 27.59C188.405 28.0283 189.407 28.6611 190.244 29.4959V27.5099H194.393V36.4982H190.244C189.773 34.7105 189.034 33.3763 188.039 32.4958C187.04 31.6153 185.77 31.1769 184.233 31.1769C182.936 31.1769 181.881 31.5352 181.063 32.2518C180.245 32.9685 179.838 33.8795 179.838 34.9849C179.838 35.9264 180.098 36.6736 180.619 37.2263C181.139 37.779 182.051 38.2478 183.362 38.629L186.984 39.6735C190.315 40.6569 192.663 41.8538 194.016 43.268C195.373 44.6822 196.051 46.5729 196.051 48.9515C196.051 51.776 195.203 54.0441 193.511 55.7479C191.819 57.4556 189.565 58.3057 186.761 58.3057C185.167 58.3057 183.713 58.0389 182.39 57.509C181.071 56.9754 179.918 56.1901 178.93 55.1533Z" fill="#D61962"/>
<path d="M200.083 40.7256H198.335V38.0764H203.219V46.756C203.958 46.047 204.681 45.5285 205.397 45.1969C206.113 44.8691 206.871 44.7052 207.666 44.7052C208.981 44.7052 209.957 45.0635 210.594 45.7839C211.231 46.5044 211.548 47.6174 211.548 49.1269V55.0657H213.296V57.715H206.663V55.0657H208.412V49.8321C208.412 49.1498 208.242 48.6199 207.9 48.2426C207.557 47.8652 207.074 47.6784 206.452 47.6784C205.898 47.6784 205.356 47.8347 204.821 48.1511C204.285 48.4675 203.75 48.9478 203.215 49.5958V55.0657H204.964V57.715H198.331V55.0657H200.08V40.7256H200.083Z" fill="#D61962"/>
<path d="M227.854 55.0619H229.607V57.7111H224.738V56.3541C224.21 56.8954 223.611 57.3071 222.94 57.593C222.269 57.8789 221.557 58.0199 220.803 58.0199C218.942 58.0199 217.415 57.3948 216.224 56.1445C215.03 54.8942 214.434 53.3008 214.434 51.3644C214.434 49.4814 215.041 47.9033 216.251 46.6263C217.461 45.3494 218.979 44.709 220.803 44.709C221.549 44.709 222.247 44.85 222.895 45.1283C223.543 45.4065 224.157 45.8335 224.738 46.3976V45.0406H229.607V47.6784H227.854V55.0619ZM217.615 51.3873C217.615 52.5042 217.95 53.419 218.621 54.1242C219.292 54.8294 220.159 55.1839 221.222 55.1839C222.258 55.1839 223.117 54.8256 223.807 54.1128C224.497 53.4 224.839 52.4927 224.839 51.3911C224.839 50.2895 224.493 49.3785 223.799 48.6542C223.106 47.93 222.247 47.5679 221.222 47.5679C220.159 47.5679 219.292 47.9224 218.621 48.6314C217.95 49.3404 217.615 50.2628 217.615 51.3873Z" fill="#D61962"/>
<path d="M239.729 38.0764H244.572V55.0619H246.324V57.7112H241.455V56.3541C240.928 56.8954 240.328 57.3071 239.658 57.593C238.987 57.8789 238.275 58.0199 237.521 58.0199C235.659 58.0199 234.133 57.3948 232.942 56.1445C231.747 54.8942 231.152 53.3009 231.152 51.3645C231.152 49.4814 231.759 47.9033 232.968 46.6264C234.178 45.3494 235.697 44.709 237.521 44.709C238.267 44.709 238.964 44.85 239.612 45.1283C240.261 45.4066 240.875 45.8335 241.455 46.3976V40.7256H239.729V38.0764ZM234.333 51.3873C234.333 52.4775 234.676 53.3847 235.365 54.1013C236.055 54.818 236.91 55.1801 237.939 55.1801C238.983 55.1801 239.846 54.8218 240.532 54.109C241.218 53.3962 241.557 52.4889 241.557 51.3873C241.557 50.2857 241.21 49.3747 240.517 48.6504C239.823 47.9262 238.964 47.5641 237.939 47.5641C236.922 47.5641 236.066 47.9262 235.373 48.6504C234.679 49.3785 234.333 50.2895 234.333 51.3873Z" fill="#D61962"/>
<path d="M252.599 55.0618H254.404V57.711H247.56V55.0618H249.467V47.6745H247.587V45.0367H252.603V55.0618H252.599ZM248.454 42.9631V39.6086H252.599V42.9631H248.454Z" fill="#D61962"/>
<path d="M71.9051 37.7448L48.2948 13.8637C44.5375 10.0633 38.4436 10.0633 34.6863 13.8637L11.0759 37.7448C7.31861 41.5452 7.31861 47.709 11.0759 51.5094L34.6863 75.3905C38.4436 79.1909 44.5375 79.1909 48.2948 75.3905L71.9051 51.5094C75.6625 47.709 75.6625 41.5452 71.9051 37.7448ZM35.8056 27.4758C35.8131 27.4491 35.8169 27.4186 35.8244 27.3919C35.832 27.3614 35.8357 27.3347 35.8433 27.308C35.847 27.2852 35.8546 27.2623 35.8583 27.2394C35.8583 27.2356 35.8621 27.2318 35.8621 27.228C35.8696 27.1899 35.8809 27.148 35.8923 27.1098C35.8998 27.0793 35.9073 27.0488 35.9186 27.0183C35.9299 26.9764 35.9412 26.9345 35.9526 26.8964C35.9526 26.8926 35.9563 26.8887 35.9563 26.8849C35.9639 26.8583 35.9714 26.8316 35.9827 26.8087C35.994 26.7706 36.0053 26.7363 36.0204 26.6982C36.0355 26.6562 36.0505 26.6143 36.0656 26.5762C36.0844 26.519 36.1071 26.458 36.1334 26.4046C36.1372 26.397 36.141 26.3856 36.1448 26.378C36.1561 26.3513 36.1674 26.3246 36.1787 26.2979C36.2013 26.2407 36.2277 26.1874 36.2503 26.134C36.2691 26.0883 36.2917 26.0463 36.3143 26.0006C36.3332 25.9625 36.352 25.9282 36.3709 25.8939C36.3897 25.8519 36.4123 25.8138 36.4349 25.7757C36.4764 25.7033 36.5141 25.6308 36.5593 25.5622C36.5819 25.5203 36.6083 25.4784 36.6347 25.4403C36.6422 25.4288 36.6497 25.4136 36.6573 25.4021C36.6912 25.3488 36.7251 25.2992 36.7628 25.2458C36.793 25.2001 36.8269 25.1544 36.8608 25.1086C36.8834 25.0781 36.906 25.0476 36.9286 25.021C36.955 24.9866 36.9814 24.9523 37.0078 24.9218C37.0304 24.8913 37.0568 24.8609 37.0831 24.8304C37.1133 24.7961 37.1397 24.7617 37.166 24.7313C37.1962 24.6969 37.2263 24.6626 37.2603 24.6283C37.2979 24.5864 37.3356 24.5445 37.3733 24.5064C37.411 24.4682 37.4487 24.4301 37.4864 24.392C37.5278 24.3539 37.5655 24.3158 37.607 24.2776C37.6597 24.2319 37.7125 24.1823 37.7653 24.1366C37.8029 24.1061 37.8369 24.0756 37.8745 24.0451C37.9612 23.9727 38.0517 23.9041 38.1383 23.8393C38.1836 23.805 38.225 23.7745 38.2703 23.744C38.3004 23.7211 38.3305 23.6982 38.3645 23.6792C38.3682 23.6754 38.3758 23.6716 38.3795 23.6716C38.4059 23.6525 38.4323 23.6373 38.4587 23.6182C38.5642 23.5496 38.6697 23.4848 38.7752 23.4238C38.8054 23.4047 38.8393 23.3895 38.8695 23.3704C38.9637 23.3171 39.0579 23.2713 39.1521 23.2256C42.3177 21.5141 46.1467 21.8838 49.4593 23.3018C49.9002 23.5229 50.4165 23.7478 50.8574 24.0451C50.929 24.1175 51.2984 24.2662 51.2984 24.3424L51.37 24.7884L51.8863 27.6168H51.5923C51.223 26.8735 50.6351 25.8291 50.1941 25.3068C48.8676 23.5191 45.9959 22.6271 43.4936 22.6271C43.3164 22.6271 43.1393 22.6347 42.9622 22.65C42.917 22.6538 42.8755 22.6576 42.8303 22.6614C42.8039 22.6652 42.7775 22.6691 42.7511 22.6691C42.721 22.6729 42.6946 22.6767 42.6645 22.6805C42.6117 22.6881 42.5627 22.6957 42.5137 22.7034C42.4723 22.711 42.4346 22.7186 42.3931 22.7224C42.3479 22.73 42.3027 22.7377 42.2574 22.7491C42.2311 22.7567 42.2009 22.7605 42.1745 22.7682C42.1368 22.7758 42.0992 22.7834 42.0615 22.7948C42.0389 22.7987 42.0125 22.8063 41.9899 22.8139C41.9484 22.8215 41.9107 22.833 41.8693 22.8444C41.7487 22.8749 41.6319 22.913 41.515 22.9511C41.4773 22.9626 41.4397 22.974 41.402 22.9892C41.3643 23.0007 41.3266 23.0159 41.2889 23.0312C41.2475 23.0464 41.206 23.0617 41.1645 23.0769C41.1306 23.0922 41.0967 23.1036 41.059 23.1188C41.0213 23.1341 40.9874 23.1493 40.9497 23.1646C40.9083 23.1836 40.8668 23.1989 40.8291 23.218C40.7387 23.2599 40.652 23.3018 40.5653 23.3476C40.5276 23.3666 40.49 23.3857 40.4523 23.4047C40.4146 23.4238 40.3769 23.4467 40.3392 23.4657C40.2978 23.4886 40.2601 23.5115 40.2186 23.5343C40.1433 23.5801 40.0716 23.6258 40 23.6716C39.9624 23.6944 39.9284 23.7173 39.8908 23.744C39.8568 23.7669 39.8191 23.7935 39.7852 23.8202C39.7589 23.8393 39.7325 23.8583 39.7061 23.8774C39.6307 23.9308 39.5591 23.9879 39.4875 24.0489C39.4536 24.0756 39.4159 24.1061 39.382 24.1366C39.3481 24.1671 39.3142 24.1976 39.2765 24.2281C39.2463 24.2586 39.2124 24.2853 39.1823 24.3158C39.1521 24.3463 39.1182 24.3768 39.088 24.4072C39.0428 24.453 38.9976 24.4949 38.9561 24.5407C38.9109 24.5902 38.8657 24.636 38.8205 24.6855C38.7941 24.716 38.7715 24.7427 38.7451 24.7732C38.7112 24.8151 38.6773 24.857 38.6396 24.899C38.6358 24.9028 38.6358 24.9028 38.632 24.9066C38.6132 24.9333 38.5906 24.9562 38.5717 24.9828C38.5454 25.0171 38.519 25.0514 38.4926 25.0858C38.4474 25.1467 38.4059 25.2077 38.3645 25.2687C38.3305 25.3183 38.2966 25.3716 38.2665 25.4212C38.2627 25.4288 38.2589 25.4364 38.2514 25.4441C38.2363 25.4669 38.225 25.4898 38.21 25.5127C38.1836 25.5546 38.161 25.5965 38.1383 25.6385C38.1308 25.6537 38.1195 25.669 38.112 25.688C38.1044 25.7033 38.0931 25.7185 38.0856 25.7376C38.0441 25.8138 38.0064 25.89 37.9725 25.9663V25.9701C37.9386 26.0463 37.9047 26.1226 37.8745 26.2026C37.8406 26.2903 37.8067 26.3818 37.7766 26.4694C37.7502 26.5457 37.7276 26.6257 37.705 26.7058C37.6974 26.7363 37.6861 26.7668 37.6786 26.7973C37.6748 26.8087 37.671 26.8163 37.671 26.8278C37.6522 26.904 37.6371 26.9802 37.6183 27.0565C37.607 27.1098 37.5994 27.1632 37.5881 27.2204C37.5881 27.228 37.5844 27.2356 37.5844 27.2394C37.5844 27.2432 37.5844 27.2471 37.5844 27.2471C37.5768 27.2852 37.5731 27.3195 37.5693 27.3576C37.5618 27.4033 37.558 27.4491 37.5504 27.491H35.8018C35.8018 27.4948 35.8018 27.4872 35.8056 27.4758ZM25.5022 27.8493H47.4883V35.8694C47.3262 35.7589 47.1604 35.6483 46.9984 35.5416C46.678 29.294 43.6104 28.4516 37.8783 28.3372C37.7615 28.3334 37.6484 28.3334 37.5316 28.3296C36.9437 28.322 36.3332 28.3182 35.6925 28.3182C35.5795 28.3182 35.4626 28.3182 35.3496 28.3182H31.1513V41.2098C30.2921 41.7854 29.4781 42.4677 28.7281 43.2453C28.4794 43.5045 28.2457 43.7675 28.0158 44.042V31.745C28.0158 28.524 27.7596 28.3182 25.4984 28.3182V27.8493H25.5022ZM28.0158 44.5909C28.1666 44.3965 28.3211 44.2097 28.4794 44.0267C28.551 43.9429 28.6264 43.859 28.7017 43.779C28.7168 43.7637 28.7319 43.7447 28.747 43.7294C28.7658 43.7104 28.7809 43.6913 28.7997 43.6722C28.8562 43.6074 28.9165 43.5464 28.9768 43.4855C29.0409 43.4168 29.1087 43.352 29.1728 43.2834C29.1766 43.2796 29.1803 43.2758 29.1841 43.272C29.2256 43.2301 29.2633 43.1919 29.3047 43.1538C29.3123 43.1462 29.3198 43.1386 29.3273 43.131C29.3349 43.1233 29.3386 43.1195 29.3462 43.1119C29.4027 43.0547 29.463 43.0014 29.5195 42.9442C29.6024 42.8679 29.6891 42.7879 29.772 42.7117L29.7758 42.7078C29.8135 42.6735 29.8512 42.6392 29.8926 42.6049C29.9341 42.5706 29.9755 42.5363 30.0132 42.4982C30.017 42.4944 30.0207 42.4906 30.0245 42.4906C30.3863 42.1818 30.7632 41.8921 31.1476 41.6291C33.3258 40.1234 35.8395 39.3115 38.3946 39.3115V39.4602C35.9412 39.4602 33.5595 40.2111 31.4905 41.5757C31.3737 41.652 31.2606 41.7282 31.1476 41.8082C31.0797 41.854 31.0119 41.9035 30.9478 41.9531C30.8649 42.0141 30.7782 42.0789 30.6953 42.1437C30.635 42.1894 30.5747 42.2352 30.5144 42.2847C30.4466 42.3381 30.3788 42.3953 30.3072 42.4524C30.2582 42.4944 30.2092 42.5363 30.1602 42.5782C30.1187 42.6125 30.0773 42.6469 30.0358 42.685C29.968 42.7421 29.9002 42.8031 29.8361 42.8641C29.7569 42.9365 29.6778 43.009 29.5987 43.0852C29.5158 43.1614 29.4366 43.2415 29.3537 43.3215C29.2708 43.4016 29.1954 43.4816 29.1163 43.5655C29.0145 43.6722 28.9165 43.7752 28.8186 43.8857C28.7733 43.9352 28.7281 43.9848 28.6829 44.0344C28.5849 44.1487 28.4869 44.2631 28.3927 44.3774C28.3362 44.446 28.2759 44.5185 28.2231 44.5909C28.1515 44.6824 28.0799 44.7739 28.0121 44.8615C26.1843 47.2935 25.1404 50.2934 25.1404 53.2437C25.1404 56.3046 26.0675 58.9386 27.6239 61.058C27.6164 61.1723 27.6088 61.2867 27.5975 61.4011C25.928 59.1521 24.9896 56.358 24.9896 53.2437C24.9972 50.1485 26.1014 47.0571 28.0158 44.5909ZM25.5022 63.9626C26.9079 63.9626 27.5485 63.5204 27.8274 62.2358C27.8576 62.0986 27.8839 61.95 27.9066 61.7899C27.9216 61.6869 27.9329 61.5802 27.9442 61.4659C27.9593 61.2981 27.9744 61.1228 27.9857 60.936C28.0121 60.4862 28.0196 59.9754 28.0196 59.396V45.4562C28.4266 44.873 28.8789 44.3202 29.3688 43.8056C29.9265 43.2224 30.5257 42.7002 31.1513 42.2428V45.7306H35.9299C38.7036 45.7306 41.8354 45.6773 41.8354 40.638H42.2989V51.2883H41.8354C41.8354 46.249 38.6509 46.1957 35.9299 46.1957H31.1513V58.9767C31.1513 63.2879 32.1802 63.9626 34.5431 63.9626V64.4315H25.5022V63.9626ZM40.1659 67.1684C36.744 67.1684 33.714 66.2993 31.2795 64.7745H31.8259C34.2604 66.1849 37.1585 66.9435 40.1659 66.9435C50.767 66.9435 55.4061 59.1254 55.4061 52.1993C55.4061 38.9418 35.6737 35.8885 35.6737 28.8137C35.6737 28.7642 35.6737 28.7146 35.6774 28.6651H35.6925C36.4425 28.6651 37.0078 28.6689 37.5278 28.6765H37.6107C38.2665 30.8569 42.3366 32.8695 46.6667 35.7322C46.7157 35.7627 46.7647 35.797 46.8137 35.8313C46.8815 35.877 46.9494 35.919 47.0172 35.9647C47.0963 36.0181 47.1755 36.0714 47.2584 36.1248C47.3375 36.1782 47.4129 36.2315 47.4921 36.2849C47.575 36.3421 47.6541 36.3954 47.737 36.4526C52.8623 39.99 57.9876 44.8158 57.9876 52.569C57.9839 58.6756 52.0935 67.1684 40.1659 67.1684Z" fill="#D61962"/>
<path d="M261.297 57.2688C261.297 57.4404 261.24 57.5852 261.127 57.6996C261.014 57.8139 260.875 57.8711 260.702 57.8711C260.532 57.8711 260.392 57.8139 260.276 57.6958C260.159 57.5776 260.102 57.4365 260.102 57.265C260.102 57.0935 260.159 56.9524 260.276 56.8343C260.392 56.7161 260.532 56.6589 260.698 56.6589C260.864 56.6589 261.003 56.7161 261.116 56.8343C261.229 56.9524 261.297 57.0973 261.297 57.2688Z" fill="black"/>
<path d="M259.985 52.245L260.392 51.8257C260.686 52.0544 260.913 52.3288 261.067 52.6528C261.222 52.9769 261.301 53.3314 261.301 53.7202C261.301 54.3529 261.105 54.8599 260.713 55.2335C260.321 55.607 259.793 55.7976 259.138 55.7976C258.478 55.7976 257.947 55.6146 257.543 55.2487C257.14 54.8828 256.937 54.4025 256.937 53.8078C256.937 53.5372 256.978 53.297 257.061 53.0874C257.144 52.8777 257.272 52.691 257.445 52.5232H257.05V51.9095H258.482V52.4661C258.184 52.5842 257.962 52.752 257.811 52.9616C257.66 53.1713 257.585 53.4266 257.585 53.7202C257.585 54.0975 257.728 54.4025 258.011 54.635C258.293 54.8675 258.67 54.9819 259.138 54.9819C259.612 54.9819 259.982 54.8599 260.249 54.6121C260.517 54.3644 260.649 54.0213 260.649 53.5753C260.649 53.3199 260.596 53.0798 260.487 52.8587C260.377 52.6376 260.208 52.4356 259.985 52.245Z" fill="black"/>
<path d="M259.107 51.2996C258.489 51.2996 257.973 51.0823 257.558 50.6439C257.144 50.2056 256.937 49.6605 256.937 49.0048C256.937 48.3454 257.144 47.8003 257.558 47.3619C257.973 46.9236 258.489 46.7063 259.107 46.7063C259.725 46.7063 260.245 46.9236 260.664 47.3619C261.082 47.8003 261.289 48.3454 261.289 49.0048C261.289 49.6605 261.082 50.2056 260.664 50.6439C260.245 51.0823 259.725 51.2996 259.107 51.2996ZM259.107 50.4838C259.545 50.4838 259.91 50.3428 260.2 50.0607C260.49 49.7786 260.634 49.4279 260.634 49.0048C260.634 48.5779 260.49 48.2272 260.204 47.9451C259.918 47.6631 259.552 47.522 259.107 47.522C258.663 47.522 258.297 47.6631 258.011 47.9451C257.724 48.2272 257.581 48.5817 257.581 49.0048C257.581 49.4241 257.724 49.7748 258.014 50.0607C258.305 50.3466 258.67 50.4838 259.107 50.4838Z" fill="black"/>
<path d="M257.634 44.7127C257.347 44.4154 257.159 44.1638 257.072 43.9618C256.986 43.7598 256.937 43.531 256.937 43.2757C256.937 42.9783 257.001 42.7344 257.129 42.5476C257.257 42.3608 257.445 42.235 257.698 42.174C257.43 41.9225 257.238 41.6785 257.118 41.4498C256.997 41.2211 256.94 40.9771 256.94 40.7179C256.94 40.2605 257.057 39.9289 257.295 39.723C257.532 39.5172 257.909 39.4105 258.425 39.4105H260.573V38.7625H261.195V40.817H260.573V40.1881H258.708C258.282 40.1881 257.996 40.2414 257.852 40.3444C257.709 40.4473 257.638 40.6264 257.638 40.8742C257.638 41.1105 257.702 41.3316 257.834 41.5375C257.965 41.7433 258.15 41.9186 258.391 42.0635H260.573V41.4155H261.195V43.4891H260.573V42.8411H258.708C258.286 42.8411 258.003 42.8907 257.856 42.9898C257.709 43.0889 257.638 43.2566 257.638 43.4891C257.638 43.6988 257.694 43.9046 257.811 44.1028C257.928 44.301 258.109 44.5069 258.354 44.7165H260.57V44.0876H261.191V46.1422H260.57V45.4941H257.672V46.1422H257.05V44.7165H257.634V44.7127Z" fill="black"/>
</svg>
