<svg width="151" height="151" viewBox="0 0 151 151" fill="none" xmlns="http://www.w3.org/2000/svg">
<path d="M144.59 60.0417L90.9504 6.40208C82.4142 -2.13403 68.5697 -2.13403 60.0336 6.40208L6.40212 60.0417C-2.13404 68.5778 -2.13404 82.4222 6.40212 90.9583L60.0421 144.598C68.5783 153.134 82.4228 153.134 90.959 144.598L144.599 90.9583C153.135 82.4137 153.135 68.5778 144.59 60.0417ZM62.585 36.9762C62.6021 36.9163 62.6107 36.8478 62.6278 36.7879C62.6449 36.7194 62.6535 36.6594 62.6706 36.5995C62.6792 36.5481 62.6963 36.4968 62.7048 36.4454C62.7048 36.4368 62.7134 36.4283 62.7134 36.4197C62.7305 36.3341 62.7562 36.2399 62.7819 36.1543C62.799 36.0858 62.8162 36.0173 62.8418 35.9488C62.8675 35.8546 62.8932 35.7605 62.9189 35.6748C62.9189 35.6663 62.9275 35.6577 62.9275 35.6492C62.9446 35.5892 62.9617 35.5293 62.9874 35.4779C63.0131 35.3923 63.0388 35.3152 63.073 35.2296C63.1073 35.1354 63.1415 35.0413 63.1758 34.9556C63.2186 34.8272 63.2699 34.6902 63.3299 34.5704C63.3384 34.5532 63.347 34.5276 63.3556 34.5104C63.3812 34.4505 63.4069 34.3906 63.4326 34.3306C63.484 34.2022 63.5439 34.0823 63.5953 33.9625C63.6381 33.8597 63.6895 33.7656 63.7408 33.6628C63.7836 33.5772 63.8265 33.5001 63.8693 33.4231C63.9121 33.3289 63.9634 33.2433 64.0148 33.1577C64.109 32.995 64.1946 32.8323 64.2974 32.6782C64.3487 32.584 64.4087 32.4899 64.4686 32.4042C64.4857 32.3785 64.5028 32.3443 64.52 32.3186C64.597 32.1988 64.6741 32.0874 64.7597 31.9676C64.8282 31.8648 64.9053 31.7621 64.9823 31.6594C65.0337 31.5909 65.0851 31.5224 65.1364 31.4624C65.1964 31.3854 65.2563 31.3083 65.3162 31.2398C65.3676 31.1713 65.4275 31.1028 65.4874 31.0343C65.5559 30.9573 65.6159 30.8802 65.6758 30.8117C65.7443 30.7347 65.8128 30.6576 65.8899 30.5806C65.9755 30.4864 66.0611 30.3922 66.1467 30.3066C66.2323 30.221 66.318 30.1354 66.4036 30.0497C66.4977 29.9641 66.5834 29.8785 66.6776 29.7929C66.7974 29.6901 66.9173 29.5788 67.0371 29.4761C67.1228 29.4076 67.1998 29.3391 67.2854 29.2706C67.4824 29.1079 67.6879 28.9538 67.8848 28.8083C67.9875 28.7312 68.0817 28.6627 68.1844 28.5942C68.2529 28.5429 68.3214 28.4915 68.3985 28.4487C68.407 28.4401 68.4242 28.4316 68.4327 28.4316C68.4927 28.3888 68.5526 28.3545 68.6125 28.3117C68.8523 28.1576 69.092 28.012 69.3317 27.875C69.4002 27.8322 69.4773 27.798 69.5458 27.7552C69.7598 27.6353 69.9739 27.5326 70.1879 27.4298C77.3799 23.5856 86.0787 24.4161 93.6046 27.6011C94.6063 28.0977 95.7793 28.6028 96.781 29.2706C96.9437 29.4333 97.7828 29.7672 97.7828 29.9384L97.9454 30.9402L99.1184 37.293H98.4506C97.6115 35.6235 96.2759 33.2775 95.2741 32.1046C92.2604 28.0891 85.7362 26.0856 80.0512 26.0856C79.6488 26.0856 79.2463 26.1028 78.8439 26.137C78.7412 26.1456 78.647 26.1541 78.5443 26.1627C78.4843 26.1713 78.4244 26.1798 78.3645 26.1798C78.296 26.1884 78.236 26.1969 78.1675 26.2055C78.0477 26.2226 77.9364 26.2397 77.8251 26.2569C77.7309 26.274 77.6453 26.2911 77.5511 26.2997C77.4484 26.3168 77.3456 26.3339 77.2429 26.3596C77.1829 26.3767 77.1144 26.3853 77.0545 26.4024C76.9689 26.4195 76.8833 26.4367 76.7977 26.4624C76.7463 26.4709 76.6864 26.488 76.635 26.5052C76.5408 26.5223 76.4552 26.548 76.361 26.5737C76.087 26.6422 75.8216 26.7278 75.5562 26.8134C75.4706 26.8391 75.3849 26.8648 75.2993 26.899C75.2137 26.9247 75.1281 26.9589 75.0425 26.9932C74.9483 27.0274 74.8541 27.0617 74.7599 27.0959C74.6829 27.1302 74.6058 27.1559 74.5202 27.1901C74.4346 27.2244 74.3575 27.2586 74.2719 27.2928C74.1777 27.3357 74.0835 27.3699 73.9979 27.4127C73.7924 27.5069 73.5955 27.6011 73.3986 27.7038C73.313 27.7466 73.2274 27.7894 73.1417 27.8322C73.0561 27.875 72.9705 27.9264 72.8849 27.9692C72.7907 28.0206 72.7051 28.072 72.6109 28.1233C72.4397 28.2261 72.277 28.3288 72.1143 28.4316C72.0287 28.4829 71.9517 28.5343 71.866 28.5942C71.789 28.6456 71.7034 28.7055 71.6263 28.7655C71.5664 28.8083 71.5064 28.8511 71.4465 28.8939C71.2753 29.0138 71.1126 29.1422 70.9499 29.2792C70.8729 29.3391 70.7872 29.4076 70.7102 29.4761C70.6331 29.5446 70.5561 29.6131 70.4705 29.6816C70.402 29.7501 70.3249 29.81 70.2564 29.8785C70.1879 29.947 70.1109 30.0155 70.0424 30.084C69.9396 30.1867 69.8369 30.2809 69.7427 30.3837C69.64 30.495 69.5372 30.5977 69.4345 30.709C69.3745 30.7775 69.3232 30.8374 69.2632 30.9059C69.1862 31.0001 69.1091 31.0943 69.0235 31.1885C69.0149 31.197 69.0149 31.197 69.0064 31.2056C68.9636 31.2655 68.9122 31.3169 68.8694 31.3768C68.8095 31.4539 68.7495 31.5309 68.6896 31.608C68.5868 31.745 68.4927 31.882 68.3985 32.019C68.3214 32.1303 68.2444 32.2501 68.1759 32.3614C68.1673 32.3786 68.1587 32.3957 68.1416 32.4128C68.1074 32.4642 68.0817 32.5155 68.0474 32.5669C67.9875 32.6611 67.9361 32.7553 67.8848 32.8494C67.8677 32.8837 67.842 32.9179 67.8248 32.9608C67.8077 32.995 67.782 33.0292 67.7649 33.0721C67.6707 33.2433 67.5851 33.4145 67.508 33.5858V33.5943C67.431 33.7656 67.3539 33.9368 67.2854 34.1166C67.2084 34.3135 67.1313 34.519 67.0628 34.7159C67.0029 34.8872 66.9515 35.067 66.9002 35.2467C66.883 35.3152 66.8574 35.3837 66.8402 35.4522C66.8317 35.4779 66.8231 35.495 66.8231 35.5207C66.7803 35.692 66.746 35.8632 66.7032 36.0344C66.6776 36.1543 66.6604 36.2742 66.6347 36.4026C66.6347 36.4197 66.6262 36.4368 66.6262 36.4454C66.6262 36.454 66.6262 36.4625 66.6262 36.4625C66.6091 36.5481 66.6005 36.6252 66.5919 36.7108C66.5748 36.8136 66.5662 36.9163 66.5491 37.0105H62.5764C62.5764 37.0105 62.5764 36.9934 62.585 36.9762ZM39.1769 37.8153H89.1267V55.8293C88.7586 55.581 88.3818 55.3327 88.0137 55.093C87.2859 41.0602 80.3166 39.168 67.294 38.9112C67.0286 38.9026 66.7717 38.9026 66.5063 38.8941C65.1707 38.8769 63.7836 38.8684 62.3281 38.8684C62.0713 38.8684 61.8059 38.8684 61.549 38.8684H52.0111V67.8244C50.059 69.1172 48.2096 70.6497 46.5058 72.3964C45.9408 72.9786 45.4099 73.5693 44.8876 74.1858V46.5654C44.8876 39.3307 44.3054 38.8684 39.1683 38.8684V37.8153H39.1769ZM44.8876 75.4187C45.2301 74.982 45.5812 74.5625 45.9408 74.1515C46.1034 73.9632 46.2747 73.7748 46.4459 73.595C46.4801 73.5608 46.5144 73.518 46.5486 73.4837C46.5915 73.4409 46.6257 73.3981 46.6685 73.3553C46.7969 73.2097 46.9339 73.0727 47.0709 72.9357C47.2165 72.7816 47.3706 72.6361 47.5161 72.482C47.5247 72.4734 47.5333 72.4649 47.5418 72.4563C47.636 72.3621 47.7216 72.2765 47.8158 72.1909C47.8329 72.1738 47.85 72.1566 47.8672 72.1395C47.8843 72.1224 47.8929 72.1138 47.91 72.0967C48.0384 71.9683 48.1754 71.8484 48.3038 71.72C48.4922 71.5487 48.6891 71.3689 48.8775 71.1977L48.886 71.1891C48.9716 71.1121 49.0573 71.035 49.1514 70.958C49.2456 70.8809 49.3398 70.8039 49.4254 70.7182C49.434 70.7097 49.4426 70.7011 49.4511 70.7011C50.2731 70.0076 51.1292 69.3569 52.0025 68.7662C56.9513 65.3843 62.662 63.5606 68.467 63.5606V63.8945C62.8932 63.8945 57.4821 65.5812 52.7817 68.6463C52.5163 68.8175 52.2594 68.9888 52.0025 69.1686C51.8484 69.2713 51.6943 69.3826 51.5488 69.4939C51.3604 69.6309 51.1635 69.7765 50.9751 69.922C50.8381 70.0247 50.7011 70.1275 50.5641 70.2388C50.41 70.3587 50.2559 70.4871 50.0933 70.6155C49.9819 70.7097 49.8706 70.8039 49.7593 70.898C49.6652 70.9751 49.571 71.0522 49.4768 71.1378C49.3227 71.2662 49.1686 71.4032 49.023 71.5402C48.8432 71.7029 48.6634 71.8655 48.4836 72.0368C48.2953 72.208 48.1155 72.3878 47.9271 72.5676C47.7387 72.7474 47.5675 72.9272 47.3877 73.1156C47.1565 73.3553 46.9339 73.5864 46.7113 73.8347C46.6086 73.946 46.5058 74.0573 46.4031 74.1686C46.1805 74.4255 45.9579 74.6824 45.7438 74.9392C45.6154 75.0933 45.4784 75.256 45.3585 75.4187C45.1959 75.6242 45.0332 75.8296 44.8791 76.0266C40.7266 81.489 38.3549 88.2271 38.3549 94.8539C38.3549 101.729 40.4612 107.645 43.9972 112.406C43.9801 112.662 43.963 112.919 43.9373 113.176C40.1444 108.125 38.0125 101.849 38.0125 94.8539C38.0296 87.9018 40.5297 80.9581 44.8876 75.4187ZM39.1769 118.921C42.3705 118.921 43.826 117.928 44.4596 115.043C44.528 114.734 44.588 114.401 44.6394 114.041C44.6736 113.81 44.6993 113.57 44.725 113.313C44.7592 112.936 44.7935 112.543 44.8191 112.123C44.8791 111.113 44.8962 109.965 44.8962 108.664V77.3451C45.8209 76.0351 46.8483 74.7937 47.9613 73.6378C49.2285 72.3279 50.5898 71.1549 52.0111 70.1275V77.9615H62.8675C69.1691 77.9615 76.2839 77.8417 76.2839 66.523H77.3371V90.4446H76.2839C76.2839 79.1259 69.0492 79.0061 62.8675 79.0061H52.0111V107.714C52.0111 117.397 54.3485 118.913 59.7168 118.913V119.966H39.1769V118.921ZM72.491 126.122C64.7169 126.122 57.8332 124.169 52.3022 120.745H53.5437C59.0746 123.913 65.6587 125.616 72.491 125.616C96.5755 125.616 107.115 108.056 107.115 92.4994C107.115 62.7215 62.2853 55.8635 62.2853 39.9729C62.2853 39.8616 62.2853 39.7503 62.2939 39.6389H62.3281C64.0319 39.6389 65.3162 39.6475 66.4977 39.6646H66.6861C68.1759 44.562 77.4227 49.0826 87.2602 55.5125C87.3715 55.581 87.4828 55.6581 87.5942 55.7351C87.7483 55.8379 87.9024 55.932 88.0565 56.0348C88.2363 56.1546 88.4161 56.2745 88.6044 56.3944C88.7842 56.5142 88.9555 56.6341 89.1353 56.754C89.3236 56.8824 89.5034 57.0023 89.6918 57.1307C101.336 65.076 112.98 75.9153 112.98 93.3299C112.971 107.054 99.5893 126.122 72.491 126.122Z" fill="#0977AF"/>
</svg>
