<svg width="153" height="155" viewBox="0 0 153 155" fill="none" xmlns="http://www.w3.org/2000/svg">
<path d="M146.513 61.6322L92.163 6.57167C83.5139 -2.19056 69.4861 -2.19056 60.8369 6.57167L6.48687 61.6322C-2.16229 70.3944 -2.16229 84.6056 6.48687 93.3678L60.8369 148.428C69.4861 157.191 83.5139 157.191 92.163 148.428L146.513 93.3678C155.162 84.6056 155.162 70.3944 146.513 61.6322ZM63.4135 37.9557C63.4308 37.8942 63.4395 37.8239 63.4568 37.7624C63.4742 37.6921 63.4829 37.6306 63.5002 37.569C63.5089 37.5163 63.5263 37.4636 63.5349 37.4108C63.5349 37.4021 63.5436 37.3933 63.5436 37.3845C63.561 37.2966 63.587 37.1999 63.613 37.112C63.6304 37.0417 63.6477 36.9714 63.6737 36.9011C63.6998 36.8044 63.7258 36.7077 63.7518 36.6199C63.7518 36.6111 63.7605 36.6023 63.7605 36.5935C63.7778 36.532 63.7952 36.4705 63.8212 36.4177C63.8472 36.3298 63.8733 36.2507 63.908 36.1629C63.9427 36.0662 63.9774 35.9695 64.0121 35.8816C64.0554 35.7498 64.1075 35.6092 64.1682 35.4861C64.1769 35.4686 64.1856 35.4422 64.1942 35.4246C64.2203 35.3631 64.2463 35.3016 64.2723 35.2401C64.3244 35.1082 64.3851 34.9852 64.4371 34.8621C64.4805 34.7567 64.5326 34.66 64.5846 34.5545C64.628 34.4667 64.6714 34.3876 64.7148 34.3085C64.7581 34.2118 64.8102 34.1239 64.8622 34.036C64.9577 33.869 65.0444 33.7021 65.1485 33.5439C65.2006 33.4472 65.2613 33.3505 65.322 33.2626C65.3394 33.2363 65.3567 33.2011 65.3741 33.1747C65.4521 33.0517 65.5302 32.9375 65.617 32.8144C65.6864 32.7089 65.7645 32.6035 65.8425 32.498C65.8946 32.4277 65.9466 32.3574 65.9987 32.2959C66.0594 32.2168 66.1201 32.1377 66.1809 32.0674C66.2329 31.9971 66.2936 31.9268 66.3544 31.8564C66.4238 31.7774 66.4845 31.6983 66.5452 31.6279C66.6146 31.5488 66.684 31.4698 66.7621 31.3907C66.8489 31.294 66.9356 31.1973 67.0224 31.1094C67.1091 31.0215 67.1959 30.9336 67.2826 30.8458C67.378 30.7579 67.4648 30.67 67.5602 30.5821C67.6817 30.4766 67.8031 30.3624 67.9246 30.2569C68.0113 30.1866 68.0894 30.1163 68.1762 30.046C68.3757 29.879 68.5839 29.7208 68.7834 29.5714C68.8875 29.4923 68.9829 29.422 69.0871 29.3517C69.1564 29.299 69.2259 29.2462 69.3039 29.2023C69.3126 29.1935 69.3299 29.1847 69.3386 29.1847C69.3994 29.1408 69.4601 29.1056 69.5208 29.0617C69.7637 28.9035 70.0066 28.7541 70.2495 28.6135C70.3189 28.5695 70.397 28.5344 70.4664 28.4904C70.6833 28.3674 70.9002 28.2619 71.117 28.1565C78.4042 24.2104 87.2182 25.0629 94.8437 28.3322C95.8587 28.842 97.0472 29.3605 98.0622 30.046C98.227 30.213 99.0772 30.5557 99.0772 30.7315L99.242 31.7598L100.431 38.2809H99.7538C98.9037 36.5671 97.5503 34.1591 96.5354 32.955C93.4817 28.8332 86.8712 26.7766 81.1109 26.7766C80.7031 26.7766 80.2954 26.7942 79.8877 26.8294C79.7836 26.8382 79.6881 26.847 79.584 26.8557C79.5233 26.8645 79.4626 26.8733 79.4018 26.8733C79.3325 26.8821 79.2717 26.8909 79.2023 26.8997C79.0809 26.9173 78.9681 26.9348 78.8553 26.9524C78.7599 26.97 78.6731 26.9876 78.5777 26.9964C78.4736 27.0139 78.3695 27.0315 78.2654 27.0579C78.2047 27.0755 78.1353 27.0842 78.0745 27.1018C77.9878 27.1194 77.901 27.137 77.8143 27.1633C77.7622 27.1721 77.7015 27.1897 77.6495 27.2073C77.554 27.2249 77.4673 27.2512 77.3718 27.2776C77.0942 27.3479 76.8253 27.4358 76.5564 27.5237C76.4696 27.55 76.3829 27.5764 76.2961 27.6116C76.2094 27.6379 76.1226 27.6731 76.0359 27.7082C75.9404 27.7434 75.845 27.7785 75.7496 27.8137C75.6715 27.8489 75.5934 27.8752 75.5067 27.9104C75.4199 27.9455 75.3419 27.9807 75.2551 28.0158C75.1597 28.0598 75.0642 28.0949 74.9775 28.1389C74.7693 28.2355 74.5698 28.3322 74.3702 28.4377C74.2835 28.4816 74.1967 28.5256 74.11 28.5695C74.0232 28.6135 73.9365 28.6662 73.8497 28.7101C73.7543 28.7629 73.6675 28.8156 73.5721 28.8683C73.3986 28.9738 73.2338 29.0793 73.069 29.1847C72.9822 29.2374 72.9041 29.2902 72.8174 29.3517C72.7393 29.4044 72.6525 29.466 72.5745 29.5275C72.5137 29.5714 72.453 29.6154 72.3923 29.6593C72.2188 29.7823 72.054 29.9142 71.8891 30.0548C71.8111 30.1163 71.7243 30.1866 71.6462 30.2569C71.5682 30.3272 71.4901 30.3975 71.4033 30.4679C71.3339 30.5382 71.2558 30.5997 71.1864 30.67C71.117 30.7403 71.039 30.8106 70.9696 30.8809C70.8655 30.9864 70.7614 31.0831 70.6659 31.1885C70.5618 31.3028 70.4577 31.4082 70.3536 31.5225C70.2929 31.5928 70.2408 31.6543 70.1801 31.7246C70.102 31.8213 70.024 31.918 69.9372 32.0146C69.9285 32.0234 69.9285 32.0234 69.9199 32.0322C69.8765 32.0937 69.8244 32.1465 69.7811 32.208C69.7203 32.2871 69.6596 32.3662 69.5989 32.4453C69.4948 32.5859 69.3994 32.7265 69.3039 32.8671C69.2259 32.9814 69.1478 33.1044 69.0784 33.2187C69.0697 33.2363 69.061 33.2538 69.0437 33.2714C69.009 33.3241 68.9829 33.3769 68.9482 33.4296C68.8875 33.5263 68.8355 33.623 68.7834 33.7196C68.7661 33.7548 68.74 33.7899 68.7227 33.8339C68.7053 33.869 68.6793 33.9042 68.662 33.9481C68.5665 34.1239 68.4798 34.2997 68.4017 34.4755V34.4842C68.3236 34.66 68.2456 34.8358 68.1762 35.0203C68.0981 35.2225 68.02 35.4334 67.9506 35.6355C67.8899 35.8113 67.8378 35.9959 67.7858 36.1804C67.7684 36.2507 67.7424 36.3211 67.725 36.3914C67.7164 36.4177 67.7077 36.4353 67.7077 36.4617C67.6643 36.6374 67.6296 36.8132 67.5862 36.989C67.5602 37.112 67.5429 37.2351 67.5168 37.3669C67.5168 37.3845 67.5082 37.4021 67.5082 37.4108C67.5082 37.4196 67.5082 37.4284 67.5082 37.4284C67.4908 37.5163 67.4821 37.5954 67.4735 37.6833C67.4561 37.7887 67.4474 37.8942 67.4301 37.9909H63.4048C63.4048 37.9997 63.4048 37.9821 63.4135 37.9557ZM39.6955 38.817H90.3066V57.3082C89.9335 57.0533 89.5518 56.7985 89.1788 56.5524C88.4414 42.1479 81.3798 40.2056 68.1848 39.942C67.9159 39.9332 67.6556 39.9332 67.3867 39.9244C66.0334 39.9068 64.628 39.898 63.1532 39.898C62.893 39.898 62.624 39.898 62.3638 39.898H52.6996V69.621C50.7217 70.9481 48.8478 72.5213 47.1215 74.3141C46.5489 74.9118 46.011 75.5182 45.4819 76.1509V47.799C45.4819 40.3726 44.8919 39.898 39.6868 39.898V38.817H39.6955ZM45.4819 77.4165C45.8289 76.9683 46.1845 76.5376 46.5489 76.1158C46.7137 75.9224 46.8872 75.7291 47.0607 75.5445C47.0954 75.5094 47.1301 75.4654 47.1648 75.4303C47.2082 75.3863 47.2429 75.3424 47.2863 75.2985C47.4164 75.149 47.5552 75.0084 47.694 74.8678C47.8415 74.7096 47.9977 74.5602 48.1451 74.402C48.1538 74.3932 48.1625 74.3844 48.1712 74.3756C48.2666 74.279 48.3533 74.1911 48.4488 74.1032C48.4661 74.0856 48.4835 74.0681 48.5008 74.0505C48.5182 74.0329 48.5268 74.0241 48.5442 74.0065C48.6743 73.8747 48.8131 73.7517 48.9433 73.6198C49.1341 73.4441 49.3336 73.2595 49.5245 73.0837L49.5332 73.0749C49.6199 72.9958 49.7067 72.9167 49.8021 72.8376C49.8975 72.7585 49.993 72.6795 50.0797 72.5916C50.0884 72.5828 50.0971 72.574 50.1057 72.574C50.9385 71.8621 51.8061 71.1942 52.6909 70.5878C57.7052 67.1163 63.4915 65.2443 69.3733 65.2443V65.5871C63.7258 65.5871 58.2431 67.3184 53.4804 70.4647C53.2114 70.6405 52.9512 70.8163 52.6909 71.0008C52.5348 71.1063 52.3786 71.2205 52.2312 71.3348C52.0403 71.4754 51.8408 71.6248 51.6499 71.7742C51.5111 71.8797 51.3723 71.9852 51.2335 72.0994C51.0774 72.2225 50.9212 72.3543 50.7564 72.4861C50.6436 72.5828 50.5308 72.6795 50.418 72.7761C50.3226 72.8552 50.2272 72.9343 50.1318 73.0222C49.9756 73.154 49.8194 73.2947 49.672 73.4353C49.4898 73.6023 49.3076 73.7692 49.1254 73.945C48.9346 74.1208 48.7524 74.3053 48.5615 74.4899C48.3707 74.6745 48.1972 74.859 48.015 75.0524C47.7808 75.2985 47.5552 75.5357 47.3297 75.7906C47.2256 75.9049 47.1215 76.0191 47.0174 76.1334C46.7918 76.397 46.5662 76.6607 46.3494 76.9243C46.2192 77.0825 46.0804 77.2495 45.959 77.4165C45.7942 77.6274 45.6293 77.8384 45.4732 78.0405C41.2657 83.6476 38.8627 90.5642 38.8627 97.3666C38.8627 104.424 40.9968 110.497 44.5796 115.383C44.5623 115.647 44.5449 115.911 44.5189 116.174C40.6758 110.989 38.5157 104.547 38.5157 97.3666C38.533 90.2303 41.0749 83.1027 45.4819 77.4165ZM39.6955 122.08C42.9313 122.08 44.4061 121.061 45.0481 118.099C45.1175 117.783 45.1782 117.44 45.2303 117.071C45.265 116.833 45.291 116.587 45.317 116.324C45.3517 115.937 45.3864 115.533 45.4125 115.102C45.4732 114.065 45.4905 112.887 45.4905 111.551V79.4115C46.4274 78.0669 47.4685 76.7925 48.5962 75.6061C49.8802 74.2614 51.2595 73.0574 52.6996 72.0027V80.0443H63.6998C70.0847 80.0443 77.2938 79.9213 77.2938 68.3027H78.3608V92.8581H77.2938C77.2938 81.2395 69.9632 81.1165 63.6998 81.1165H52.6996V110.585C52.6996 120.525 55.0679 122.08 60.5073 122.08V123.161H39.6955V122.08ZM73.4507 129.471C65.5736 129.471 58.5987 127.468 52.9946 123.952H54.2525C59.8566 127.204 66.5279 128.953 73.4507 128.953C97.854 128.953 108.533 110.927 108.533 94.9585C108.533 64.3918 63.1098 57.3521 63.1098 41.0405C63.1098 40.9263 63.1098 40.812 63.1185 40.6978H63.1532C64.8796 40.6978 66.1809 40.7066 67.378 40.7241H67.5689C69.0784 45.7512 78.4476 50.3916 88.4154 56.9918C88.5282 57.0621 88.6409 57.1412 88.7537 57.2203C88.9099 57.3258 89.066 57.4225 89.2222 57.5279C89.4043 57.651 89.5865 57.774 89.7774 57.897C89.9596 58.0201 90.1331 58.1431 90.3152 58.2662C90.5061 58.398 90.6883 58.521 90.8791 58.6529C102.677 66.8087 114.476 77.935 114.476 95.811C114.467 109.89 100.908 129.471 73.4507 129.471Z" fill="#D61962"/>
</svg>
