<svg width="122" height="88" viewBox="0 0 122 88" fill="none" xmlns="http://www.w3.org/2000/svg">
<path d="M121.791 38.227L100.435 7.56663C100.09 7.07113 99.4252 6.92154 98.9014 7.22071C95.2772 9.29621 90.8837 9.41931 87.1507 7.54793L76.2624 2.08962C71.2271 -0.434635 65.3385 -0.683943 60.1088 1.40714L49.9169 5.48023C48.4762 6.05675 47.177 6.88882 46.0689 7.93592C45.3198 7.83931 44.5598 7.78789 43.8014 7.78789C41.119 7.78789 38.4257 8.40805 36.0137 9.58292C33.5737 10.7703 30.6457 10.5833 28.3736 9.09676L22.199 5.05329C21.9395 4.88344 21.624 4.82423 21.3225 4.88812C21.0195 4.952 20.7552 5.13275 20.5858 5.39297L0.189487 36.7031C-0.161746 37.2438 -0.0109958 37.9683 0.528286 38.3205L7.99276 43.2085C8.8009 43.7367 9.48783 44.4114 10.0333 45.2123C10.5804 46.0148 10.9565 46.9014 11.1539 47.8487C11.5237 49.6126 12.3894 51.2471 13.6249 52.5467L12.0832 54.9136C9.85771 58.3306 10.8197 62.9273 14.2279 65.1586C15.4308 65.947 16.8249 66.3631 18.2578 66.3631C19.3239 66.3631 20.3527 66.134 21.2914 65.7118C21.2883 66.2384 21.338 66.7682 21.4484 67.2964C21.854 69.2317 22.9854 70.8927 24.6359 71.9725C25.8388 72.761 27.2328 73.177 28.6673 73.177C29.7334 73.177 30.7654 72.948 31.7041 72.5241C31.6854 74.9611 32.8634 77.3607 35.0454 78.7896C36.2483 79.578 37.6424 79.9941 39.0753 79.9941C40.1414 79.9941 41.1718 79.765 42.109 79.3427C42.1058 79.8694 42.1556 80.4007 42.2659 80.9274C42.6715 82.8627 43.8029 84.5237 45.4534 85.6035C46.6563 86.392 48.0504 86.808 49.4848 86.808C51.9901 86.808 54.3026 85.5536 55.6703 83.4532L57.0472 81.3403L65.4659 86.7971C66.7092 87.6105 68.1079 88 69.4911 88C71.9031 88 74.2685 86.8189 75.6827 84.6483C76.7535 83.0045 77.0846 81.0879 76.7629 79.2929C77.8958 79.9535 79.1609 80.2948 80.4493 80.2948C80.9575 80.2948 81.4703 80.2418 81.9801 80.1343C83.9103 79.7276 85.567 78.5932 86.644 76.9385C87.749 75.2431 88.0676 73.258 87.6931 71.4147C88.7747 71.8759 89.917 72.1003 91.0515 72.1003C93.8691 72.1003 96.6339 70.7197 98.286 68.183C99.6552 66.081 99.9909 63.5957 99.4205 61.3348C100.667 61.9815 102.017 62.2947 103.359 62.2947C106.184 62.2947 108.961 60.9125 110.607 58.3867C111.526 56.9766 112.01 55.3452 112.01 53.6654C112.01 52.3675 111.715 51.0804 111.156 49.9133C111.712 47.7023 113.033 45.7779 114.909 44.4628L121.494 39.8522C122.03 39.4844 122.159 38.7552 121.791 38.227ZM108.663 57.1106C106.792 59.9823 102.919 60.8269 100.03 58.9929C100.022 58.9882 100.014 58.9835 100.006 58.9789C99.9893 58.9679 99.9706 58.957 99.9504 58.943L77.0504 43.9471L75.776 45.9041L94.5126 58.1733C97.4188 60.0758 98.2378 63.9946 96.3402 66.9084C95.4202 68.3201 94.009 69.2878 92.3632 69.6337C90.7174 69.9796 89.0358 69.6633 87.6293 68.7409L82.6126 65.4562L68.8912 56.4717L67.6168 58.4288L83.2311 68.6536C85.5623 70.1806 86.2213 73.325 84.6982 75.6623C83.96 76.7951 82.8271 77.5711 81.5061 77.85C80.1851 78.1273 78.8361 77.8734 77.7062 77.1332L62.0919 66.9084L60.8175 68.8655L72.2683 76.3635C74.5995 77.8905 75.2585 81.0349 73.7354 83.3722C72.2124 85.7095 69.0762 86.3701 66.7403 84.84L58.3263 79.3864L58.9308 78.4592C60.0094 76.8045 60.3808 74.8271 59.9752 72.8919C59.5696 70.9566 58.4382 69.2956 56.7861 68.2158C55.5832 67.4273 54.1892 67.0113 52.7547 67.0113C51.687 67.0113 50.6566 67.2403 49.718 67.6642C49.7366 65.2272 48.5586 62.8291 46.3766 61.4003C45.1721 60.6118 43.7781 60.1942 42.3452 60.1942C41.2806 60.1942 40.2518 60.4233 39.3131 60.8456C39.3162 60.3189 39.2665 59.7891 39.1561 59.2609C38.7505 57.3256 37.6191 55.6646 35.967 54.5848C34.7641 53.7963 33.3701 53.3803 31.9356 53.3803C30.868 53.3803 29.8376 53.6093 28.8989 54.0332C28.9175 51.5962 27.7395 49.1981 25.5575 47.7693C24.3531 46.9809 22.959 46.5632 21.5261 46.5632C19.0224 46.5632 16.7099 47.8176 15.3407 49.918L14.9475 50.521C14.2046 49.6126 13.6793 48.5281 13.4369 47.3719C13.1773 46.1223 12.68 44.9536 11.9589 43.8956C11.2378 42.8392 10.3317 41.951 9.26714 41.2545L2.77866 37.0054L21.8991 7.64766L27.0976 11.0523C30.0505 12.986 33.8565 13.2275 37.0301 11.6849C39.1281 10.6643 41.4686 10.1236 43.7998 10.1236C43.9428 10.1236 44.0858 10.1283 44.2272 10.1314C44.2195 10.1423 44.2132 10.1532 44.2055 10.1641L33.5644 26.4985C33.1152 27.1873 32.9614 28.01 33.1292 28.8156C33.2971 29.6211 33.7695 30.3114 34.4564 30.7617L35.2055 31.2526C37.4419 32.7172 39.958 33.4169 42.4493 33.4153C46.7884 33.4153 51.0483 31.29 53.5939 27.382L58.6278 19.6534C59.3442 18.5549 60.8191 18.2449 61.9132 18.9616L106.834 48.377C107.712 48.9519 108.41 49.7077 108.907 50.6223C108.907 50.6223 108.907 50.6239 108.908 50.6239C109.417 51.5541 109.686 52.6059 109.686 53.667C109.687 54.8917 109.333 56.0822 108.663 57.1106Z" fill="#0977AF"/>
</svg>
