<svg width="62" height="87" viewBox="0 0 62 87" fill="none" xmlns="http://www.w3.org/2000/svg">
<path d="M54.1512 0H7.8488C3.52927 0 0 3.52901 0 7.86228V78.9102C0 83.2433 3.52927 86.759 7.8488 86.759H54.1512C58.4845 86.759 62 83.2433 62 78.9102V7.86228C62 3.52901 58.4845 0 54.1512 0ZM24.6451 5.18707H37.3626C38.1157 5.18707 38.7252 5.79719 38.7252 6.54971C38.7252 7.30222 38.1157 7.91234 37.3626 7.91234H24.6451C23.8919 7.91234 23.2824 7.30222 23.2824 6.54971C23.2824 5.79719 23.8919 5.18707 24.6451 5.18707ZM15.7041 5.18707H18.0887C18.8419 5.18707 19.4513 5.79719 19.4513 6.54971C19.4513 7.30222 18.8419 7.91234 18.0887 7.91234H15.7041C14.9509 7.91234 14.3415 7.30222 14.3415 6.54971C14.3415 5.79719 14.9509 5.18707 15.7041 5.18707ZM35.9056 80.9951H26.1082C24.8818 80.9951 23.9143 80.0004 23.9143 78.8012C23.9143 77.5748 24.8818 76.5938 26.1082 76.5938H35.9056C37.1182 76.5938 38.113 77.5748 38.113 78.8012C38.113 80.0004 37.1182 80.9951 35.9056 80.9951ZM55.5548 70.8162H6.44533V14.2668H55.5548V70.8162Z" fill="#D61962"/>
<path d="M31 22.1428C19.7582 22.1428 10.6013 31.2997 10.6013 42.5415C10.6013 53.6599 19.5882 62.9401 31 62.9401C42.3035 62.9401 51.3987 53.7731 51.3987 42.5415C51.3987 31.2997 42.2554 22.1428 31 22.1428ZM31 32.9647C33.7389 32.9647 35.96 35.1724 35.96 37.9113C35.96 40.65 33.7389 42.8711 31 42.8711C28.261 42.8711 26.0536 40.65 26.0536 37.9113C26.0536 35.1724 28.261 32.9647 31 32.9647ZM41.0426 57.0943C38.1266 59.111 34.6383 60.2148 31 60.2148C27.3617 60.2148 23.887 59.111 20.9573 57.0807V52.6248C20.9573 48.687 24.1596 45.4983 28.0839 45.4983H33.9297C37.8541 45.4983 41.0426 48.687 41.0426 52.6248L41.0426 57.0943Z" fill="#D61962"/>
</svg>
