<svg width="12" height="9" viewBox="0 0 12 9" fill="none" xmlns="http://www.w3.org/2000/svg">
<path d="M11.3996 1.00616e-06L0.599331 1.95035e-06C0.489984 0.000345283 0.3828 0.0305567 0.289317 0.0873843C0.195834 0.144212 0.119593 0.225503 0.0687992 0.322508C0.0180056 0.419514 -0.00541666 0.528561 0.00105308 0.637909C0.00752282 0.747258 0.0436404 0.852768 0.105518 0.943084L5.50567 8.75702C5.72948 9.08099 6.26829 9.08099 6.4927 8.75702L11.8929 0.943083C11.9554 0.852956 11.992 0.747392 11.9988 0.637861C12.0057 0.52833 11.9824 0.419021 11.9315 0.32181C11.8807 0.224599 11.8042 0.143204 11.7105 0.0864687C11.6167 0.0297327 11.5092 -0.000172572 11.3996 1.00616e-06Z" fill="#D61962"/>
</svg>
